<svg version="1.1" viewBox="0.0 0.0 480.0 288.0" fill="none" stroke="none" stroke-linecap="square" stroke-miterlimit="10" xmlns:xlink="http://www.w3.org/1999/xlink" xmlns="http://www.w3.org/2000/svg"><clipPath id="ge7ae030bd1_0_18.0"><path d="m0 0l480.0 0l0 288.0l-480.0 0l0 -288.0z" clip-rule="nonzero"/></clipPath><g clip-path="url(#ge7ae030bd1_0_18.0)"><path fill="#ffffff" d="m0 0l480.0 0l0 288.0l-480.0 0z" fill-rule="evenodd"/><path fill="#000000" fill-opacity="0.0" d="m49.335064 97.125984l404.66144 0l0 93.76379l-404.66144 0z" fill-rule="evenodd"/><path fill="#1c4587" d="m145.29616 125.52788l2.765625 -0.15625q1.0625 0 1.328125 0.9375q0.28125 0.921875 0.28125 1.859375l0 1.984375q0 4.71875 -0.59375 7.421875q-0.59375 2.6875 -1.546875 4.28125q-0.9375 1.59375 -2.140625 2.53125q-2.015625 1.546875 -5.09375 1.546875q-0.046875 0 -0.109375 0q-5.34375 0 -5.34375 -5.6875q0 -1.71875 0.5 -2.390625q0.34375 -0.53125 0.875 -0.53125q0.546875 0 0.84375 0.171875q0.3125 0.15625 0.546875 0.359375q0.234375 0.203125 0.453125 0.421875q0.21875 0.21875 0.453125 0.40625q0.25 0.171875 0.46875 0.28125q0.234375 0.09375 0.390625 0.1875q0.5 0.3125 0.5 0.828125q0 0.515625 -0.09375 0.984375q-0.09375 0.453125 -0.21875 0.859375q-0.125 0.390625 -0.234375 0.65625q-0.09375 0.265625 -0.109375 0.34375q0 0.078125 0 0.28125q0 0.21875 0.03125 0.390625q0.03125 0.140625 0.03125 0.140625q1.96875 0 2.71875 -0.59375q0.265625 -1.109375 0.265625 -3.296875q0 -2.203125 0.046875 -3.84375l0.125 -2.9375l0.109375 -2.53125q0.046875 -1.234375 0.046875 -2.734375l-0.03125 -0.34375l0.25 -0.015625l-0.390625 0.15625l-2.40625 0.296875q-0.4375 0.078125 -0.796875 0.4375q-0.65625 0.75 -0.65625 1.21875q0 0.453125 0.203125 0.578125q0.21875 0.125 0.609375 0.15625l0.890625 0.125q0.828125 0.140625 0.828125 0.84375q0 0.671875 -0.6875 1.03125q-0.6875 0.34375 -1.328125 0.34375q-0.640625 0 -1.171875 -0.328125q-0.515625 -0.34375 -0.921875 -0.796875q-0.828125 -1.0 -0.828125 -1.890625q0 -0.984375 0.96875 -2.234375q0.90625 -1.171875 2.734375 -1.75q0.984375 -0.3125 1.9375 -0.3125q0.96875 0 1.375 0.0625q0.421875 0.046875 0.75 0.09375l0.6875 0.109375q0.28125 0.046875 0.6875 0.046875zm19.112442 18.234375l-0.78125 0.015625l-0.671875 0q-1.765625 0 -7.0625 0.125l-0.765625 0.03125l-1.0 0q-0.8125 0 -1.71875 -0.09375q-0.90625 -0.078125 -0.90625 -0.875q0 -0.796875 0.796875 -1.078125l1.71875 0.03125q0 -1.265625 -0.140625 -2.9375q-0.140625 -1.671875 -0.140625 -3.390625q0.03125 0.0625 -0.25 -0.015625q-0.28125 -0.09375 -0.515625 -0.3125q-0.21875 -0.234375 -0.21875 -0.734375q0 -0.59375 0.3125 -0.75q0.3125 -0.15625 0.515625 -0.171875q0.203125 -0.03125 0.28125 0.046875q0.078125 0.078125 -0.125 0.109375l0 -0.25l0.015625 -1.140625l0 -0.375l0.03125 -2.109375q0 -0.75 0.28125 -2.03125q0.03125 0.421875 -0.375 0.421875l-1.1875 0l-0.625 0q-0.671875 -0.0625 -0.671875 -0.734375q0 -0.75 0.28125 -1.171875q0.28125 -0.421875 1.046875 -0.421875l3.03125 -0.015625q1.328125 0 2.640625 0.109375q1.328125 0.09375 2.46875 0.09375q1.140625 0 2.0625 -0.046875q0.921875 -0.0625 1.734375 -0.359375q0.125 -0.0625 0.3125 -0.234375q0.1875 -0.171875 0.5625 -0.171875q0.375 0 0.6875 0.28125q0.3125 0.28125 0.3125 0.796875l-0.265625 0.0625l0.234375 0.140625l-0.484375 0.8125q-0.15625 0.25 -0.265625 0.4375q-0.375 0.46875 -0.75 0.46875q-0.375 0 -1.765625 -0.046875q-0.40625 -0.015625 -0.890625 -0.015625q-1.25 0 -2.75 0.078125q-0.234375 2.546875 -0.234375 4.984375q0.5 0 1.046875 -0.21875l0.875 -0.34375q0.359375 -0.171875 0.75 -0.171875q0.53125 0 0.8125 0.34375q0.28125 0.34375 0.28125 1.109375q0 0.765625 -0.40625 1.25q-0.390625 0.484375 -1.484375 0.484375q-1.078125 0 -1.203125 -0.453125l-0.828125 -0.078125l0.125 0.015625q-0.125 1.640625 -0.125 2.03125l0 0.703125q0 0.28125 0.015625 0.75q0.015625 0.46875 0.015625 1.0q0.015625 0.515625 0.046875 0.96875q0.03125 0.4375 -0.203125 0.765625q-0.21875 0.3125 0.15625 -0.03125l0.09375 0.1875l0.953125 0.03125l1.59375 0.015625q3.015625 0 3.828125 -0.703125q0.328125 -0.28125 0.640625 -0.28125q1.421875 0 1.421875 1.40625l-0.046875 0.390625q-0.109375 0.78125 -0.5625 0.421875l-0.15625 0.671875l-0.4375 0.03125q-1.28125 0.140625 -1.96875 0.140625zm12.761185 0.21875q-6.28125 0.1875 -7.109375 0.1875q-0.828125 0 -1.53125 -0.09375q-0.6875 -0.078125 -0.6875 -0.984375q0 -1.375 2.09375 -1.375q0.109375 0 0.125 -0.046875q0.015625 -0.0625 0.015625 -0.4375l-0.1875 -2.625l0.34375 -2.53125l0 0.203125q-0.71875 0 -1.171875 -0.3125q-0.4375 -0.3125 -0.4375 -0.828125q0 -1.15625 1.53125 -1.15625q0.09375 -0.359375 0.09375 -1.578125l0 -1.75l-0.03125 -1.875l0 -0.625l-0.0625 -0.21875l-2.34375 -0.28125q-0.59375 -0.15625 -0.671875 -0.546875q-0.078125 -0.390625 -0.078125 -0.625q0 -0.25 0.078125 -0.578125q0.078125 -0.328125 0.671875 -0.546875q1.421875 0 3.09375 0.21875q3.0625 0.4375 3.734375 0.4375l1.21875 0l0.46875 -0.03125l5.03125 -0.9375l2.734375 0l0.328125 0.703125l0.078125 2.40625q0 0.734375 -0.25 1.46875q-0.234375 0.734375 -1.21875 0.734375l-0.234375 0q-0.234375 0 -0.453125 -0.15625l-2.265625 -2.40625l-0.0625 0q-1.8125 0 -3.03125 0.078125q-1.203125 0.0625 -0.859375 0.109375q-0.078125 0.671875 -0.109375 1.1875l-0.046875 1.015625q-0.03125 0.4375 -0.03125 0.921875l0 2.53125q0.046875 0.046875 0.40625 0.046875l0.046875 0q0.46875 0 0.671875 -0.09375q0.6875 -0.140625 0.765625 -0.140625q0.09375 -0.015625 0.0625 -0.0625l0.15625 -0.53125q0.046875 -0.265625 0.203125 -0.671875q0.171875 -0.40625 0.796875 -0.40625q1.15625 0 1.15625 1.640625q0 0.921875 -0.21875 1.84375q-0.203125 0.90625 -0.484375 1.515625q-0.28125 0.59375 -1.0 0.59375l-0.359375 -0.140625q-0.546875 -0.25 -0.546875 -0.65625l0 -0.921875l-1.6875 0l0.03125 -0.046875l0 1.453125q0 3.1875 0.1875 5.125q-0.359375 0.03125 -0.265625 -0.328125l1.859375 -0.140625q1.234375 0 1.234375 1.0625q0 1.203125 -1.78125 1.203125zm17.020538 0q-6.28125 0.1875 -7.109375 0.1875q-0.828125 0 -1.53125 -0.09375q-0.6875 -0.078125 -0.6875 -0.984375q0 -1.375 2.09375 -1.375q0.109375 0 0.125 -0.046875q0.015625 -0.0625 0.015625 -0.4375l-0.1875 -2.625l0.34375 -2.53125l0 0.203125q-0.71875 0 -1.171875 -0.3125q-0.4375 -0.3125 -0.4375 -0.828125q0 -1.15625 1.53125 -1.15625q0.09375 -0.359375 0.09375 -1.578125l0 -1.75l-0.03125 -1.875l0 -0.625l-0.0625 -0.21875l-2.34375 -0.28125q-0.59375 -0.15625 -0.671875 -0.546875q-0.078125 -0.390625 -0.078125 -0.625q0 -0.25 0.078125 -0.578125q0.078125 -0.328125 0.671875 -0.546875q1.421875 0 3.09375 0.21875q3.0625 0.4375 3.734375 0.4375l1.21875 0l0.46875 -0.03125l5.03125 -0.9375l2.734375 0l0.328125 0.703125l0.078125 2.40625q0 0.734375 -0.25 1.46875q-0.234375 0.734375 -1.21875 0.734375l-0.234375 0q-0.234375 0 -0.453125 -0.15625l-2.265625 -2.40625l-0.0625 0q-1.8125 0 -3.03125 0.078125q-1.203125 0.0625 -0.859375 0.109375q-0.078125 0.671875 -0.109375 1.1875l-0.046875 1.015625q-0.03125 0.4375 -0.03125 0.921875l0 2.53125q0.046875 0.046875 0.40625 0.046875l0.046875 0q0.46875 0 0.671875 -0.09375q0.6875 -0.140625 0.765625 -0.140625q0.09375 -0.015625 0.0625 -0.0625l0.15625 -0.53125q0.046875 -0.265625 0.203125 -0.671875q0.171875 -0.40625 0.796875 -0.40625q1.15625 0 1.15625 1.640625q0 0.921875 -0.21875 1.84375q-0.203125 0.90625 -0.484375 1.515625q-0.28125 0.59375 -1.0 0.59375l-0.359375 -0.140625q-0.546875 -0.25 -0.546875 -0.65625l0 -0.921875l-1.6875 0l0.03125 -0.046875l0 1.453125q0 3.1875 0.1875 5.125q-0.359375 0.03125 -0.265625 -0.328125l1.859375 -0.140625q1.234375 0 1.234375 1.0625q0 1.203125 -1.78125 1.203125zm23.099274 0q-6.28125 0.1875 -7.109375 0.1875q-0.828125 0 -1.53125 -0.09375q-0.6875 -0.078125 -0.6875 -0.984375q0 -1.375 2.09375 -1.375q0.109375 0 0.125 -0.046875q0.015625 -0.0625 0.015625 -0.4375l-0.1875 -2.625l0.34375 -2.53125l0 0.203125q-0.71875 0 -1.171875 -0.3125q-0.4375 -0.3125 -0.4375 -0.828125q0 -1.15625 1.53125 -1.15625q0.09375 -0.359375 0.09375 -1.578125l0 -1.75l-0.03125 -1.875l0 -0.625l-0.0625 -0.21875l-2.34375 -0.28125q-0.59375 -0.15625 -0.671875 -0.546875q-0.078125 -0.390625 -0.078125 -0.625q0 -0.25 0.078125 -0.578125q0.078125 -0.328125 0.671875 -0.546875q1.421875 0 3.09375 0.21875q3.0625 0.4375 3.734375 0.4375l1.21875 0l0.46875 -0.03125l5.03125 -0.9375l2.734375 0l0.328125 0.703125l0.078125 2.40625q0 0.734375 -0.25 1.46875q-0.234375 0.734375 -1.21875 0.734375l-0.234375 0q-0.234375 0 -0.453125 -0.15625l-2.265625 -2.40625l-0.0625 0q-1.8125 0 -3.03125 0.078125q-1.203125 0.0625 -0.859375 0.109375q-0.078125 0.671875 -0.109375 1.1875l-0.046875 1.015625q-0.03125 0.4375 -0.03125 0.921875l0 2.53125q0.046875 0.046875 0.40625 0.046875l0.046875 0q0.46875 0 0.671875 -0.09375q0.6875 -0.140625 0.765625 -0.140625q0.09375 -0.015625 0.0625 -0.0625l0.15625 -0.53125q0.046875 -0.265625 0.203125 -0.671875q0.171875 -0.40625 0.796875 -0.40625q1.15625 0 1.15625 1.640625q0 0.921875 -0.21875 1.84375q-0.203125 0.90625 -0.484375 1.515625q-0.28125 0.59375 -1.0 0.59375l-0.359375 -0.140625q-0.546875 -0.25 -0.546875 -0.65625l0 -0.921875l-1.6875 0l0.03125 -0.046875l0 1.453125q0 3.1875 0.1875 5.125q-0.359375 0.03125 -0.265625 -0.328125l1.859375 -0.140625q1.234375 0 1.234375 1.0625q0 1.203125 -1.78125 1.203125zm19.718658 -0.4375q-1.84375 0.71875 -3.859375 0.71875q-2.015625 0 -3.578125 -0.703125q-1.5625 -0.6875 -2.734375 -1.828125q-1.171875 -1.15625 -1.828125 -2.640625q-0.65625 -1.484375 -0.65625 -2.84375q0 -1.359375 0.203125 -2.578125q0.21875 -1.265625 0.640625 -2.484375q1.546875 -4.375 5.15625 -5.78125q1.40625 -0.53125 3.078125 -0.53125q5.140625 0 7.65625 2.96875q2.0 2.375 2.0 5.984375q-0.03125 4.796875 -2.875 7.625q-1.328125 1.34375 -3.203125 2.09375zm-6.484375 -9.5q-0.078125 0.9375 -0.078125 1.703125q0 0.75 0.1875 1.578125q0.203125 0.890625 0.484375 1.765625q0.625 1.734375 1.734375 3.359375q-0.140625 0.125 0.25 -0.046875q0.359375 0 0.953125 -0.109375q1.546875 -0.234375 1.859375 -1.296875q0.28125 -1.078125 0.546875 -1.828125q0.28125 -0.75 0.46875 -1.40625q0.4375 -1.390625 0.4375 -2.40625q0 -1.03125 -0.078125 -1.84375q-0.078125 -0.8125 -0.25 -1.703125q-0.15625 -0.90625 -0.46875 -1.8125q-0.234375 -0.859375 -0.640625 -1.5625q-0.84375 -1.421875 -1.96875 -1.453125q-1.171875 0.03125 -2.046875 1.5q-1.109375 1.875 -1.390625 5.5625zm23.729431 9.53125q-3.21875 0.4375 -6.671875 0.4375q-0.90625 0 -1.671875 -0.0625q-0.75 -0.046875 -1.53125 -0.28125q-0.765625 -0.234375 -0.921875 -0.5625q-0.140625 -0.34375 -0.140625 -1.59375l2.671875 0l-0.015625 -1.4375l0 -0.765625q0 -0.40625 0.0625 -0.671875l-0.09375 -2.5625q-0.578125 -0.09375 -0.90625 -0.3125q-0.328125 -0.234375 -0.328125 -0.640625q0 -0.421875 0.25 -0.71875q0.140625 -0.234375 0.390625 -0.46875q0.453125 -0.453125 0.484375 -0.5625q0.03125 -0.125 0.125 -0.78125q0.09375 -0.671875 0.203125 -1.46875l0.203125 -1.515625q0.09375 -0.671875 0.078125 -0.796875l-0.046875 -1.078125l-1.484375 0.09375q-1.0625 0 -1.0625 -1.046875q-0.0625 -0.5 0.71875 -0.796875q0.75 -0.28125 1.15625 -0.28125l0.546875 0.03125l7.609375 -0.359375q1.625 0 1.625 1.015625q0 1.0 -1.171875 1.1875q-1.203125 0.15625 -1.171875 0.140625q-0.03125 0.0625 -0.078125 0.21875q-0.203125 0.53125 -0.25 0.953125l-0.09375 1.0625q-0.078125 0.59375 -0.140625 1.234375q-0.0625 0.625 -0.125 1.203125q-0.0625 0.5625 -0.109375 0.984375q-0.03125 0.421875 -0.125 0.84375q-0.140625 0.765625 -0.140625 3.125l0.03125 3.03125q0 0.53125 0.0625 0.703125q0.078125 0.15625 0.546875 0.15625l1.859375 0.125q0.484375 0 0.671875 -0.078125l0.609375 -0.3125q0.29685974 -0.125 0.57810974 -0.28125q0.765625 -0.421875 0.921875 -0.578125l0.71875 -0.6875q0.4375 -0.53125 1.015625 -1.125l1.953125 -2.09375q1.421875 0.53125 1.421875 2.171875q0 1.03125 -0.359375 2.328125q-0.359375 1.296875 -0.59375 1.828125q-0.671875 1.40625 -1.59375 1.40625q-1.234375 0 -2.390625 -0.1875q-1.140625 -0.1875 -1.7656097 -0.1875l-0.796875 0l-0.609375 0.015625l-0.125 0zm19.021439 0q-3.21875 0.4375 -6.671875 0.4375q-0.90625 0 -1.671875 -0.0625q-0.75 -0.046875 -1.53125 -0.28125q-0.765625 -0.234375 -0.921875 -0.5625q-0.140625 -0.34375 -0.140625 -1.59375l2.671875 0l-0.015625 -1.4375l0 -0.765625q0 -0.40625 0.0625 -0.671875l-0.09375 -2.5625q-0.578125 -0.09375 -0.90625 -0.3125q-0.328125 -0.234375 -0.328125 -0.640625q0 -0.421875 0.25 -0.71875q0.140625 -0.234375 0.390625 -0.46875q0.453125 -0.453125 0.484375 -0.5625q0.03125 -0.125 0.125 -0.78125q0.09375 -0.671875 0.203125 -1.46875l0.203125 -1.515625q0.09375 -0.671875 0.078125 -0.796875l-0.046875 -1.078125l-1.484375 0.09375q-1.0625 0 -1.0625 -1.046875q-0.0625 -0.5 0.71875 -0.796875q0.75 -0.28125 1.15625 -0.28125l0.546875 0.03125l7.609375 -0.359375q1.625 0 1.625 1.015625q0 1.0 -1.171875 1.1875q-1.203125 0.15625 -1.171875 0.140625q-0.03125 0.0625 -0.078125 0.21875q-0.203125 0.53125 -0.25 0.953125l-0.09375 1.0625q-0.078125 0.59375 -0.140625 1.234375q-0.0625 0.625 -0.125 1.203125q-0.0625 0.5625 -0.109375 0.984375q-0.03125 0.421875 -0.125 0.84375q-0.140625 0.765625 -0.140625 3.125l0.03125 3.03125q0 0.53125 0.0625 0.703125q0.078125 0.15625 0.546875 0.15625l1.859375 0.125q0.484375 0 0.671875 -0.078125l0.609375 -0.3125q0.296875 -0.125 0.578125 -0.28125q0.765625 -0.421875 0.921875 -0.578125l0.71875 -0.6875q0.4375 -0.53125 1.015625 -1.125l1.953125 -2.09375q1.421875 0.53125 1.421875 2.171875q0 1.03125 -0.359375 2.328125q-0.359375 1.296875 -0.59375 1.828125q-0.671875 1.40625 -1.59375 1.40625q-1.234375 0 -2.390625 -0.1875q-1.140625 -0.1875 -1.765625 -0.1875l-0.796875 0l-0.609375 0.015625l-0.125 0zm21.143127 0.1875l-0.78125 0.015625l-0.671875 0q-1.765625 0 -7.0625 0.125l-0.765625 0.03125l-1.0 0q-0.8125 0 -1.71875 -0.09375q-0.90625 -0.078125 -0.90625 -0.875q0 -0.796875 0.796875 -1.078125l1.71875 0.03125q0 -1.265625 -0.140625 -2.9375q-0.140625 -1.671875 -0.140625 -3.390625q0.03125 0.0625 -0.25 -0.015625q-0.28125 -0.09375 -0.515625 -0.3125q-0.21875 -0.234375 -0.21875 -0.734375q0 -0.59375 0.3125 -0.75q0.3125 -0.15625 0.515625 -0.171875q0.203125 -0.03125 0.28125 0.046875q0.078125 0.078125 -0.125 0.109375l0 -0.25l0.015625 -1.140625l0 -0.375l0.03125 -2.109375q0 -0.75 0.28125 -2.03125q0.03125 0.421875 -0.375 0.421875l-1.1875 0l-0.625 0q-0.671875 -0.0625 -0.671875 -0.734375q0 -0.75 0.28125 -1.171875q0.28125 -0.421875 1.046875 -0.421875l3.03125 -0.015625q1.328125 0 2.640625 0.109375q1.328125 0.09375 2.46875 0.09375q1.140625 0 2.0625 -0.046875q0.921875 -0.0625 1.734375 -0.359375q0.125 -0.0625 0.3125 -0.234375q0.1875 -0.171875 0.5625 -0.171875q0.375 0 0.6875 0.28125q0.3125 0.28125 0.3125 0.796875l-0.265625 0.0625l0.234375 0.140625l-0.484375 0.8125q-0.15625 0.25 -0.265625 0.4375q-0.375 0.46875 -0.75 0.46875q-0.375 0 -1.765625 -0.046875q-0.40625 -0.015625 -0.890625 -0.015625q-1.25 0 -2.75 0.078125q-0.234375 2.546875 -0.234375 4.984375q0.5 0 1.046875 -0.21875l0.875 -0.34375q0.359375 -0.171875 0.75 -0.171875q0.53125 0 0.8125 0.34375q0.28125 0.34375 0.28125 1.109375q0 0.765625 -0.40625 1.25q-0.390625 0.484375 -1.484375 0.484375q-1.078125 0 -1.203125 -0.453125l-0.828125 -0.078125l0.125 0.015625q-0.125 1.640625 -0.125 2.03125l0 0.703125q0 0.28125 0.015625 0.75q0.015625 0.46875 0.015625 1.0q0.015625 0.515625 0.046875 0.96875q0.03125 0.4375 -0.203125 0.765625q-0.21875 0.3125 0.15625 -0.03125l0.09375 0.1875l0.953125 0.03125l1.59375 0.015625q3.015625 0 3.828125 -0.703125q0.328125 -0.28125 0.640625 -0.28125q1.421875 0 1.421875 1.40625l-0.046875 0.390625q-0.109375 0.78125 -0.5625 0.421875l-0.15625 0.671875l-0.4375 0.03125q-1.28125 0.140625 -1.96875 0.140625zm17.66742 -12.859375q0 0.921875 -1.453125 0.921875q-0.34375 0 -0.859375 -0.421875l-0.859375 -0.828125l-1.15625 -1.0q-0.59375 -0.546875 -1.21875 -1.0q-1.703125 -0.96875 -2.21875 -1.03125q-1.9375 0 -2.59375 0.921875q-0.203125 0.296875 -0.203125 0.671875q0 0.359375 0.203125 0.703125q0.21875 0.328125 0.828125 0.765625q1.40625 1.046875 4.4375 2.484375q-0.203125 -0.140625 -0.203125 -0.390625l0.359375 -0.484375q0.625 -0.8125 1.03125 -0.8125q0.421875 0 0.671875 0.3125q0.265625 0.296875 0.265625 0.578125q0 0.265625 -0.09375 0.484375q-0.078125 0.203125 -0.203125 0.40625q-0.234375 0.421875 -0.546875 0.28125q2.015625 0.984375 2.71875 2.03125q0.890625 1.28125 0.890625 3.1875q0 2.4375 -2.015625 4.140625q-2.015625 1.71875 -5.0625 1.71875q-1.5 0 -3.0 -0.515625q-1.5 -0.5 -2.3125 -1.765625l0.171875 -0.15625q0.046875 0.015625 -0.046875 0.015625q-0.078125 0 0.359375 0.046875l-0.375 1.765625q-0.09375 0.609375 -0.671875 0.609375q-0.5625 0 -0.765625 -0.140625q-0.1875 -0.140625 -0.4375 -0.546875l-0.03125 -1.15625q0 -1.25 0.203125 -3.671875q0.28125 -0.765625 1.03125 -0.765625q0.75 0 1.125 0.515625q0.390625 0.515625 0.6875 1.09375l0.5625 1.0625q0.234375 0.421875 0.53125 0.65625q0.1875 0.171875 0.875 0.4375q1.578125 0.640625 2.59375 0.640625q1.125 0 1.8125 -0.71875q0.640625 -0.6875 0.640625 -1.796875q0 -0.59375 -1.1875 -1.5q-1.203125 -0.90625 -2.015625 -0.90625q-0.046875 0 -0.234375 0.125q-0.703125 0.46875 -1.671875 0.46875q0.171875 -0.703125 0.171875 -0.75l0 -0.171875q0 -0.234375 0.03125 -0.171875q-2.78125 -1.421875 -3.65625 -2.53125q-0.53125 -0.71875 -0.671875 -1.484375q-0.140625 -0.765625 -0.140625 -1.671875q0 -2.390625 0.9375 -3.984375q0.6875 -1.171875 1.921875 -1.671875q1.234375 -0.5 2.28125 -0.5q1.046875 0 1.703125 0.140625q0.671875 0.125 1.265625 0.390625q0.828125 0.34375 2.265625 1.234375l-0.15625 0.078125l1.296875 -1.65625l0.53125 -0.03125q1.046875 0 1.25 0.765625q0.40625 3.25 0.40625 4.578125zm4.7972107 13.078125q-0.84375 0 -0.84375 -1.0625q0 -0.25 0.125 -0.578125q0.125 -0.34375 0.71875 -0.34375l1.421875 0q0.015625 -0.171875 0.109375 -1.09375q0.109375 -0.921875 0.203125 -2.046875q0.25 -2.75 0.25 -4.984375l0 -5.5625l-0.828125 0.140625l-4.21875 2.6875q-0.15625 -0.484375 0.0625 -0.125q0.21875 0.359375 -0.3125 0.359375q-0.53125 0 -0.875 -0.421875q-0.328125 -0.4375 -0.328125 -0.96875l1.890625 -5.015625l3.34375 1.046875q0.625 0.203125 1.921875 0.203125l1.96875 -0.0625l2.453125 0.03125q1.75 0 2.828125 -0.515625q0.1875 -0.078125 0.265625 -0.125q0.140625 -0.140625 0.328125 -0.265625q0.390625 -0.28125 0.953125 -0.28125q0.578125 0 0.875 0.40625l1.78125 3.65625q0 0.46875 -0.765625 1.234375q-0.75 0.75 -0.28125 -0.5l-3.078125 -0.78125l-2.015625 -0.78125q-0.03125 0 -0.078125 0.046875q-0.03125 0.03125 -0.109375 0.328125q-0.1875 0.6875 -0.1875 3.359375l-0.140625 6.796875q0 3.015625 0.21875 3.3125q-0.234375 0.1875 -0.265625 -0.109375l1.4375 -0.125q0.390625 0 0.609375 0.046875q0.671875 0 0.671875 0.765625q0 1.078125 -0.78125 1.234375l-1.609375 0.09375l-7.71875 0zm21.401062 -0.328125l-7.796875 0q-0.53125 0 -0.75 -0.375q-0.21875 -0.375 -0.21875 -0.859375q0 -0.484375 0.625 -0.9375q0.453125 -0.046875 0.84375 -0.0625q0.40625 -0.03125 0.75 -0.0625q0.6875 0.203125 0.453125 0.109375l2.578125 -6.84375l0.015625 -0.09375q0 -0.453125 -1.59375 -0.578125q-0.40625 -0.046875 -0.625 -0.015625q-0.84375 0 -1.4375 0.546875q-0.578125 0.546875 -0.578125 1.40625q0 0.234375 0.1875 0.234375q0.203125 0 0.234375 -0.046875q0.03125 -0.046875 0.03125 -0.28125l0 -0.703125q0.171875 -0.484375 0.421875 -0.609375q0.25 -0.140625 0.625 -0.140625q0.375 0 0.625 0.21875q0.265625 0.203125 0.421875 0.484375q0.265625 0.5 0.25 0.984375q-0.015625 0.484375 -0.234375 0.875q-0.203125 0.390625 -0.515625 0.703125q-0.765625 0.703125 -1.5 0.703125q-1.203125 0 -1.90625 -0.625q-0.6875 -0.640625 -0.6875 -1.65625q0 -1.015625 0.28125 -1.765625q0.28125 -0.75 0.8125 -1.3125q1.15625 -1.1875 2.765625 -1.1875q1.0 0 1.84375 0.1875q0.84375 0.171875 1.78125 0.8125l-0.203125 0.34375q-0.03125 0.015625 0.03125 -0.03125q0.078125 -0.0625 -0.34375 -0.15625l2.140625 -5.328125l-0.09375 0q0.359375 0 0.34375 -0.0625q-0.015625 -0.0625 -0.015625 0.34375l-3.4375 0q-0.6875 0 -0.6875 -0.5q0 -0.515625 0.171875 -1.09375q0.1875 -0.578125 0.796875 -0.578125l11.015625 -0.21875q0.53125 0 0.71875 0.40625q0.203125 0.40625 0.203125 1.140625q0 0.71875 -0.765625 0.71875l-1.59375 0l1.640625 4.859375q0.03125 0.1875 -0.015625 0.140625q-0.03125 -0.046875 0.296875 -0.046875q0.34375 0 1.109375 -0.234375q0.78125 -0.25 1.71875 -0.25q0.953125 0 0.953125 1.0q0 0.5625 -0.390625 0.84375q-0.390625 0.28125 -0.796875 0.328125l-2.34375 0.296875q-0.046875 -0.234375 0.1875 -0.328125l2.453125 7.140625l1.09375 0.28125q0.703125 0.109375 0.703125 0.734375q0 0.609375 -0.4375 1.140625q-0.40625 -0.046875 -0.53125 -0.046875l-0.296875 0l-4.796875 0.125q-0.546875 0 -0.75 -0.28125q-0.1875 -0.28125 -0.1875 -0.875q0 -0.609375 0.53125 -0.8125q0.53125 -0.21875 0.875 -0.3125q0.34375 -0.09375 0.625 -0.078125q0.28125 0.015625 0.578125 0.03125q0.546875 0.0625 0.53125 0.265625l-0.203125 0.078125l-2.0 -6.59375l0 0.125q0 -0.265625 -0.765625 0.78125l-1.234375 1.09375q-0.171875 0.171875 -0.296875 0.515625q-0.125 0.34375 -0.8125 0.34375q-0.671875 0 -0.96875 -0.328125q-0.296875 -0.328125 -0.5 -0.59375q-0.1875 -0.28125 -0.3125 -0.40625q-0.109375 -0.140625 -0.1875 -0.390625q-0.0625 -0.25 0.1875 0.015625q0.25 0.25 -0.296875 0.25l0 -0.46875l-1.578125 5.765625q-0.34375 -0.171875 -0.328125 -0.078125q0.03125 0.078125 0.125 -0.21875l0.34375 0.109375q0.28125 0.125 0.53125 0.359375q0.25 0.234375 0.25 0.9375q0 0.6875 -0.6875 0.6875zm2.40625 -9.0625l-0.015625 0.0625q-0.203125 0 -0.15625 -0.078125q0.0625 -0.09375 0.234375 0.015625l0.359375 0.28125l0.453125 0.296875q0.1875 0.140625 0.15625 0.125l2.390625 -1.96875q0.453125 0.21875 0.375 0.25q-0.078125 0.015625 -0.328125 0l0.15625 -0.078125l-1.609375 -4.0625l-2.015625 5.15625zm19.004547 -7.484375l0.03125 0.25q0 3.4375 -0.125 7.046875q-0.109375 3.609375 -0.109375 5.53125q0 1.921875 0.0625 2.15625q0.046875 0.203125 0.109375 0.265625q0.109375 0.09375 0.734375 0.09375q2.96875 0 4.6875 -2.171875q1.609375 -2.015625 1.609375 -5.0625q0 -1.328125 -0.375 -2.796875q-0.359375 -1.46875 -1.140625 -2.65625q-0.78125 -1.1875 -1.984375 -1.953125q-1.203125 -0.765625 -2.90625 -0.765625q-0.34375 0 -0.46875 0.046875q-0.125 0.03125 -0.125 0.015625zm-6.21875 -2.0625q1.03125 0.375 2.296875 0.375q1.28125 0 1.84375 -0.0625q0.5625 -0.078125 1.0 -0.171875q1.1875 -0.265625 1.9375 -0.265625q1.59375 0 3.09375 0.734375q1.515625 0.734375 2.703125 2.09375q1.1875 1.34375 1.890625 3.265625q0.71875 1.90625 0.71875 4.1875q0 2.265625 -0.65625 4.0q-0.65625 1.734375 -1.90625 2.921875q-2.5 2.375 -6.78125 2.375q-0.84375 0 -1.640625 -0.109375q-0.796875 -0.046875 -1.625 -0.15625q-2.390625 -0.25 -3.015625 -0.265625l-0.921875 0q-0.234375 0 -0.734375 0.03125q-0.515625 -0.46875 -0.515625 -1.109375q0 -0.65625 0.359375 -0.765625q0.359375 -0.125 1.015625 -0.125l1.546875 0q0 0.328125 -0.328125 0.25q0 -1.25 -0.140625 -3.5625q-0.140625 -2.328125 -0.15625 -2.859375q-0.03125 -0.015625 -0.328125 -0.140625l-1.578125 -0.765625q1.78125 -1.0 1.96875 -1.46875l0 -0.359375q-0.046875 -0.4375 -0.109375 -1.390625q-0.0625 -0.96875 -0.125 -1.640625q-0.0625 -0.671875 -0.125 -1.28125q-0.078125 -1.203125 -0.125 -1.734375q0.296875 -0.046875 0.078125 0.109375q-0.21875 0.140625 -0.46875 0.234375q-0.25 0.078125 -0.484375 0.25q-0.21875 0.15625 -0.4375 0.34375l-0.625 0.609375q-0.625 0 -1.078125 -0.171875q-0.453125 -0.171875 -0.453125 -0.875l0 -0.453125q0.90625 -1.09375 1.765625 -1.515625q0.859375 -0.4375 2.140625 -0.53125z" fill-rule="nonzero"/><path fill="#1c4587" d="m141.2439 159.46788l0 3.890625l2.28125 0q0.578125 0 0.8125 0.234375q0.25 0.21875 0.25 0.578125q0 0.34375 -0.25 0.578125q-0.234375 0.21875 -0.8125 0.21875l-4.84375 0q-0.578125 0 -0.828125 -0.21875q-0.234375 -0.234375 -0.234375 -0.59375q0 -0.34375 0.234375 -0.5625q0.25 -0.234375 0.828125 -0.234375l0.953125 0l0 -3.890625l-0.765625 0q-0.578125 0 -0.828125 -0.21875q-0.234375 -0.21875 -0.234375 -0.578125q0 -0.359375 0.234375 -0.578125q0.25 -0.21875 0.828125 -0.21875l0.765625 0l0 -0.609375q0 -1.046875 0.78125 -1.734375q0.796875 -0.703125 2.28125 -0.703125q0.671875 0 1.53125 0.125q0.875 0.125 1.125 0.34375q0.25 0.21875 0.25 0.5625q0 0.359375 -0.21875 0.59375q-0.21875 0.234375 -0.546875 0.234375q-0.140625 0 -0.4375 -0.0625q-1.0 -0.1875 -1.765625 -0.1875q-0.796875 0 -1.09375 0.234375q-0.296875 0.234375 -0.296875 0.59375l0 0.609375l2.46875 0q0.578125 0 0.8125 0.21875q0.25 0.21875 0.25 0.578125q0 0.359375 -0.25 0.578125q-0.234375 0.21875 -0.8125 0.21875l-2.46875 0zm13.0078125 -1.59375l0 5.484375q0.515625 0 0.75 0.234375q0.25 0.21875 0.25 0.578125q0 0.34375 -0.25 0.578125q-0.25 0.21875 -0.828125 0.21875l-1.515625 0l0 -0.375q-0.6875 0.3125 -1.3125 0.46875q-0.625 0.171875 -1.1875 0.171875q-0.796875 0 -1.375 -0.328125q-0.578125 -0.34375 -0.90625 -0.9375q-0.25 -0.421875 -0.25 -1.046875l0 -3.453125l-0.265625 0q-0.578125 0 -0.828125 -0.21875q-0.25 -0.21875 -0.25 -0.578125q0 -0.359375 0.25 -0.578125q0.25 -0.21875 0.828125 -0.21875l1.875 0l0 4.765625q0 0.5 0.234375 0.75q0.25 0.234375 0.765625 0.234375q0.484375 0 1.03125 -0.1875q0.5625 -0.203125 1.390625 -0.703125l0 -3.265625l-0.578125 0q-0.578125 0 -0.828125 -0.21875q-0.25 -0.21875 -0.25 -0.578125q0 -0.359375 0.25 -0.578125q0.25 -0.21875 0.828125 -0.21875l2.171875 0zm7.0078125 -3.046875l0 8.53125l1.921875 0q0.578125 0 0.8125 0.234375q0.25 0.21875 0.25 0.578125q0 0.34375 -0.25 0.578125q-0.234375 0.21875 -0.8125 0.21875l-5.453125 0q-0.578125 0 -0.828125 -0.21875q-0.234375 -0.234375 -0.234375 -0.59375q0 -0.34375 0.234375 -0.5625q0.25 -0.234375 0.828125 -0.234375l1.921875 0l0 -6.921875l-1.28125 0q-0.578125 0 -0.828125 -0.21875q-0.25 -0.234375 -0.25 -0.59375q0 -0.34375 0.25 -0.5625q0.25 -0.234375 0.828125 -0.234375l2.890625 0zm9.6015625 0l0 8.53125l1.921875 0q0.578125 0 0.8125 0.234375q0.25 0.21875 0.25 0.578125q0 0.34375 -0.25 0.578125q-0.234375 0.21875 -0.8125 0.21875l-5.453125 0q-0.578125 0 -0.828125 -0.21875q-0.234375 -0.234375 -0.234375 -0.59375q0 -0.34375 0.234375 -0.5625q0.25 -0.234375 0.828125 -0.234375l1.921875 0l0 -6.921875l-1.28125 0q-0.578125 0 -0.828125 -0.21875q-0.25 -0.234375 -0.25 -0.59375q0 -0.34375 0.25 -0.5625q0.25 -0.234375 0.828125 -0.234375l2.890625 0zm20.125 4.921875q-0.390625 -0.25 -0.828125 -0.359375q-0.421875 -0.125 -0.890625 -0.125q-0.921875 0 -1.46875 0.296875q-0.25 0.140625 -0.25 0.296875q0 0.171875 0.328125 0.34375q0.25 0.125 1.125 0.25q1.59375 0.21875 2.21875 0.4375q0.8125 0.28125 1.25 0.859375q0.453125 0.5625 0.453125 1.203125q0 0.859375 -0.75 1.4375q-1.09375 0.84375 -2.828125 0.84375q-0.6875 0 -1.28125 -0.125q-0.59375 -0.125 -1.078125 -0.359375q-0.125 0.09375 -0.265625 0.15625q-0.125 0.046875 -0.265625 0.046875q-0.375 0 -0.59375 -0.234375q-0.21875 -0.25 -0.21875 -0.828125l0 -0.546875q0 -0.578125 0.21875 -0.8125q0.21875 -0.25 0.578125 -0.25q0.296875 0 0.484375 0.15625q0.203125 0.15625 0.3125 0.546875q0.359375 0.3125 0.875 0.484375q0.515625 0.15625 1.1875 0.15625q1.109375 0 1.71875 -0.34375q0.28125 -0.171875 0.28125 -0.359375q0 -0.3125 -0.40625 -0.515625q-0.421875 -0.203125 -1.71875 -0.34375q-1.921875 -0.203125 -2.578125 -0.78125q-0.640625 -0.578125 -0.640625 -1.40625q0 -0.859375 0.71875 -1.4375q0.984375 -0.78125 2.578125 -0.78125q0.5625 0 1.0625 0.109375q0.515625 0.109375 0.984375 0.328125q0.15625 -0.109375 0.28125 -0.15625q0.125 -0.0625 0.234375 -0.0625q0.328125 0 0.546875 0.25q0.21875 0.234375 0.21875 0.8125l0 0.390625q0 0.53125 -0.125 0.71875q-0.25 0.359375 -0.671875 0.359375q-0.296875 0 -0.515625 -0.171875q-0.21875 -0.1875 -0.28125 -0.484375zm7.4765625 -0.28125l0 3.21875q0 0.515625 0.21875 0.671875q0.328125 0.265625 1.171875 0.265625q1.21875 0 2.265625 -0.53125q0.390625 -0.203125 0.625 -0.203125q0.3125 0 0.53125 0.234375q0.234375 0.234375 0.234375 0.578125q0 0.3125 -0.25 0.53125q-0.375 0.375 -1.515625 0.6875q-1.125 0.3125 -1.890625 0.3125q-1.5 0 -2.25 -0.640625q-0.734375 -0.65625 -0.734375 -1.59375l0 -3.53125l-0.578125 0q-0.578125 0 -0.828125 -0.21875q-0.25 -0.21875 -0.25 -0.578125q0 -0.359375 0.25 -0.578125q0.25 -0.21875 0.828125 -0.21875l0.578125 0l0 -1.453125q0 -0.578125 0.21875 -0.8125q0.21875 -0.25 0.578125 -0.25q0.359375 0 0.578125 0.25q0.21875 0.234375 0.21875 0.8125l0 1.453125l2.96875 0q0.578125 0 0.8125 0.21875q0.25 0.21875 0.25 0.578125q0 0.359375 -0.25 0.578125q-0.234375 0.21875 -0.8125 0.21875l-2.96875 0zm11.4453125 5.5l0 -0.375q-0.609375 0.3125 -1.34375 0.46875q-0.71875 0.171875 -1.3125 0.171875q-1.28125 0 -2.09375 -0.6875q-0.796875 -0.6875 -0.796875 -1.515625q0 -1.0 1.015625 -1.859375q1.03125 -0.875 2.84375 -0.875q0.734375 0 1.6875 0.15625l0 -0.375q0 -0.359375 -0.3125 -0.578125q-0.3125 -0.234375 -1.171875 -0.234375q-0.71875 0 -1.84375 0.28125q-0.421875 0.09375 -0.65625 0.09375q-0.328125 0 -0.546875 -0.21875q-0.21875 -0.234375 -0.21875 -0.59375q0 -0.203125 0.078125 -0.34375q0.078125 -0.15625 0.21875 -0.25q0.140625 -0.09375 0.578125 -0.21875q0.59375 -0.15625 1.203125 -0.25q0.625 -0.109375 1.125 -0.109375q1.5 0 2.3125 0.65625q0.828125 0.640625 0.828125 1.75l0 3.296875l0.28125 0q0.578125 0 0.8125 0.234375q0.25 0.21875 0.25 0.578125q0 0.34375 -0.25 0.578125q-0.234375 0.21875 -0.8125 0.21875l-1.875 0zm0 -2.875q-0.96875 -0.1875 -1.78125 -0.1875q-0.96875 0 -1.671875 0.484375q-0.4375 0.296875 -0.4375 0.609375q0 0.234375 0.203125 0.375q0.390625 0.25 1.078125 0.25q0.578125 0 1.296875 -0.21875q0.734375 -0.234375 1.3125 -0.625l0 -0.6875zm10.6484375 -3.9375q0.296875 -0.265625 0.59375 -0.265625q0.34375 0 0.5625 0.25q0.234375 0.234375 0.234375 0.8125l0 1.03125q0 0.578125 -0.234375 0.828125q-0.21875 0.234375 -0.578125 0.234375q-0.328125 0 -0.546875 -0.1875q-0.171875 -0.140625 -0.265625 -0.578125q-0.09375 -0.4375 -0.453125 -0.640625q-0.625 -0.375 -1.609375 -0.375q-1.140625 0 -1.828125 0.671875q-0.671875 0.65625 -0.671875 1.671875q0 0.9375 0.65625 1.484375q0.65625 0.53125 2.171875 0.53125q1.0 0 1.640625 -0.203125q0.375 -0.125 0.703125 -0.421875q0.34375 -0.296875 0.609375 -0.296875q0.328125 0 0.5625 0.25q0.25 0.234375 0.25 0.5625q0 0.53125 -0.734375 1.0q-1.078125 0.71875 -3.15625 0.71875q-1.859375 0 -2.90625 -0.78125q-1.40625 -1.03125 -1.40625 -2.84375q0 -1.703125 1.140625 -2.828125q1.140625 -1.125 2.984375 -1.125q0.65625 0 1.21875 0.125q0.578125 0.125 1.0625 0.375zm5.7890625 4.140625l0 2.671875l-1.875 0q-0.578125 0 -0.828125 -0.21875q-0.234375 -0.234375 -0.234375 -0.59375q0 -0.34375 0.25 -0.5625q0.25 -0.234375 0.8125 -0.234375l0.28125 0l0 -6.921875l-0.28125 0q-0.578125 0 -0.828125 -0.21875q-0.234375 -0.234375 -0.234375 -0.59375q0 -0.34375 0.234375 -0.5625q0.25 -0.234375 0.828125 -0.234375l1.875 0l0 5.40625l1.25 -1.015625q-0.1875 -0.328125 -0.1875 -0.546875q0 -0.359375 0.234375 -0.578125q0.25 -0.21875 0.828125 -0.21875l1.828125 0q0.578125 0 0.8125 0.21875q0.25 0.21875 0.25 0.578125q0 0.359375 -0.25 0.578125q-0.234375 0.21875 -0.8125 0.21875l-0.453125 0l-1.9375 1.578125l2.609375 2.3125l0.46875 0q0.578125 0 0.828125 0.234375q0.25 0.21875 0.25 0.578125q0 0.34375 -0.25 0.578125q-0.25 0.21875 -0.828125 0.21875l-1.84375 0q-0.578125 0 -0.828125 -0.21875q-0.234375 -0.234375 -0.234375 -0.59375q0 -0.296875 0.265625 -0.59375l-1.703125 -1.5l-0.296875 0.234375zm20.53125 -0.28125l-1.109375 2.953125l-1.5 0l-1.34375 -5.5q-0.4375 -0.015625 -0.671875 -0.234375q-0.21875 -0.234375 -0.21875 -0.5625q0 -0.359375 0.25 -0.578125q0.25 -0.21875 0.828125 -0.21875l1.484375 0q0.578125 0 0.828125 0.21875q0.25 0.21875 0.25 0.578125q0 0.359375 -0.28125 0.609375q-0.21875 0.1875 -0.828125 0.1875l0.609375 2.546875l0.984375 -2.609375l1.421875 0l1.0 2.609375l0.625 -2.546875q-0.59375 0 -0.78125 -0.109375q-0.375 -0.25 -0.375 -0.6875q0 -0.359375 0.25 -0.578125q0.25 -0.21875 0.828125 -0.21875l1.5 0q0.578125 0 0.828125 0.21875q0.25 0.21875 0.25 0.578125q0 0.328125 -0.21875 0.546875q-0.21875 0.21875 -0.640625 0.25l-1.3125 5.5l-1.484375 0l-1.171875 -2.953125zm13.6171875 0.21875l-6.578125 0q0.25 0.625 0.890625 1.015625q0.640625 0.375 1.71875 0.375q0.890625 0 2.375 -0.390625q0.609375 -0.15625 0.84375 -0.15625q0.3125 0 0.53125 0.234375q0.21875 0.21875 0.21875 0.5625q0 0.3125 -0.234375 0.53125q-0.3125 0.296875 -1.53125 0.5625q-1.203125 0.265625 -2.3125 0.265625q-1.921875 0 -3.078125 -1.09375q-1.15625 -1.09375 -1.15625 -2.671875q0 -1.6875 1.25 -2.75q1.25 -1.0625 2.875 -1.0625q0.96875 0 1.78125 0.34375q0.828125 0.34375 1.21875 0.75q0.5625 0.578125 0.9375 1.421875q0.25 0.59375 0.25 1.375l0 0.6875zm-1.78125 -1.609375q-0.359375 -0.6875 -0.953125 -1.015625q-0.59375 -0.34375 -1.421875 -0.34375q-0.8125 0 -1.40625 0.34375q-0.59375 0.328125 -0.96875 1.015625l4.75 0zm5.3359375 -5.796875l0 3.59375q0.59375 -0.375 1.1875 -0.5625q0.609375 -0.203125 1.234375 -0.203125q1.65625 0 2.8125 1.15625q1.15625 1.140625 1.15625 2.765625q0 1.5625 -1.109375 2.609375q-1.09375 1.046875 -2.890625 1.046875q-0.640625 0 -1.234375 -0.171875q-0.59375 -0.171875 -1.15625 -0.484375l0 0.390625l-1.875 0q-0.578125 0 -0.828125 -0.21875q-0.25 -0.234375 -0.25 -0.59375q0 -0.34375 0.25 -0.5625q0.265625 -0.234375 0.828125 -0.234375l0.28125 0l0 -6.921875l-0.28125 0q-0.578125 0 -0.828125 -0.21875q-0.25 -0.234375 -0.25 -0.59375q0 -0.34375 0.25 -0.5625q0.25 -0.234375 0.828125 -0.234375l1.875 0zm4.796875 6.796875q0 -0.984375 -0.703125 -1.671875q-0.6875 -0.6875 -1.703125 -0.6875q-1.0 0 -1.703125 0.6875q-0.6875 0.6875 -0.6875 1.65625q0 0.875 0.625 1.453125q0.625 0.5625 1.765625 0.5625q1.140625 0 1.765625 -0.5625q0.640625 -0.578125 0.640625 -1.4375zm20.109375 -6.796875l0 8.53125l0.265625 0q0.578125 0 0.828125 0.234375q0.25 0.21875 0.25 0.578125q0 0.34375 -0.25 0.578125q-0.25 0.21875 -0.828125 0.21875l-1.875 0l0 -0.390625q-0.546875 0.3125 -1.140625 0.484375q-0.59375 0.171875 -1.234375 0.171875q-1.8125 0 -2.921875 -1.046875q-1.09375 -1.046875 -1.09375 -2.609375q0 -1.625 1.15625 -2.765625q1.15625 -1.15625 2.828125 -1.15625q0.625 0 1.21875 0.203125q0.609375 0.1875 1.1875 0.5625l0 -1.984375l-0.265625 0q-0.578125 0 -0.828125 -0.21875q-0.25 -0.234375 -0.25 -0.578125q0 -0.359375 0.25 -0.578125q0.25 -0.234375 0.828125 -0.234375l1.875 0zm-1.609375 6.796875q0 -0.984375 -0.703125 -1.671875q-0.6875 -0.6875 -1.6875 -0.6875q-1.0 0 -1.703125 0.6875q-0.6875 0.6875 -0.6875 1.65625q0 0.875 0.625 1.453125q0.625 0.5625 1.765625 0.5625q1.125 0 1.75 -0.5625q0.640625 -0.578125 0.640625 -1.4375zm11.5546875 0.609375l-6.578125 0q0.25 0.625 0.890625 1.015625q0.640625 0.375 1.71875 0.375q0.890625 0 2.375 -0.390625q0.609375 -0.15625 0.84375 -0.15625q0.3125 0 0.53125 0.234375q0.21875 0.21875 0.21875 0.5625q0 0.3125 -0.234375 0.53125q-0.3125 0.296875 -1.53125 0.5625q-1.203125 0.265625 -2.3125 0.265625q-1.921875 0 -3.078125 -1.09375q-1.15625 -1.09375 -1.15625 -2.671875q0 -1.6875 1.25 -2.75q1.25 -1.0625 2.875 -1.0625q0.96875 0 1.78125 0.34375q0.828125 0.34375 1.21875 0.75q0.5625 0.578125 0.9375 1.421875q0.25 0.59375 0.25 1.375l0 0.6875zm-1.78125 -1.609375q-0.359375 -0.6875 -0.953125 -1.015625q-0.59375 -0.34375 -1.421875 -0.34375q-0.8125 0 -1.40625 0.34375q-0.59375 0.328125 -0.96875 1.015625l4.75 0zm7.3671875 2.390625l1.7343445 -3.546875q-0.640625 0 -0.828125 -0.109375q-0.39059448 -0.234375 -0.39059448 -0.6875q0 -0.359375 0.25 -0.578125q0.24996948 -0.21875 0.8280945 -0.21875l2.1875 0q0.578125 0 0.828125 0.21875q0.25 0.21875 0.25 0.578125q0 0.359375 -0.25 0.578125q-0.25 0.21875 -0.828125 0.21875l-0.265625 0l-2.6718445 5.5l-1.671875 0l-2.6875 -5.5l-0.21875 0q-0.578125 0 -0.828125 -0.21875q-0.25 -0.21875 -0.25 -0.578125q0 -0.359375 0.25 -0.578125q0.25 -0.21875 0.828125 -0.21875l2.140625 0q0.578125 0 0.8125 0.21875q0.25 0.21875 0.25 0.578125q0 0.453125 -0.375 0.6875q-0.1875 0.109375 -0.828125 0.109375l1.734375 3.546875zm13.617157 -0.78125l-6.578125 0q0.25 0.625 0.890625 1.015625q0.640625 0.375 1.71875 0.375q0.890625 0 2.375 -0.390625q0.609375 -0.15625 0.84375 -0.15625q0.3125 0 0.53125 0.234375q0.21875 0.21875 0.21875 0.5625q0 0.3125 -0.234375 0.53125q-0.3125 0.296875 -1.53125 0.5625q-1.203125 0.265625 -2.3125 0.265625q-1.921875 0 -3.078125 -1.09375q-1.15625 -1.09375 -1.15625 -2.671875q0 -1.6875 1.25 -2.75q1.25 -1.0625 2.875 -1.0625q0.96875 0 1.78125 0.34375q0.828125 0.34375 1.21875 0.75q0.5625 0.578125 0.9375 1.421875q0.25 0.59375 0.25 1.375l0 0.6875zm-1.78125 -1.609375q-0.359375 -0.6875 -0.953125 -1.015625q-0.59375 -0.34375 -1.421875 -0.34375q-0.8125 0 -1.40625 0.34375q-0.59375 0.328125 -0.96875 1.015625l4.75 0zm8.1640625 -5.796875l0 8.53125l1.921875 0q0.578125 0 0.8125 0.234375q0.25 0.21875 0.25 0.578125q0 0.34375 -0.25 0.578125q-0.234375 0.21875 -0.8125 0.21875l-5.453125 0q-0.578125 0 -0.828125 -0.21875q-0.234375 -0.234375 -0.234375 -0.59375q0 -0.34375 0.234375 -0.5625q0.25 -0.234375 0.828125 -0.234375l1.921875 0l0 -6.921875l-1.28125 0q-0.578125 0 -0.828125 -0.21875q-0.25 -0.234375 -0.25 -0.59375q0 -0.34375 0.25 -0.5625q0.25 -0.234375 0.828125 -0.234375l2.890625 0zm12.9609375 6.71875q0 0.921875 -0.515625 1.796875q-0.515625 0.859375 -1.53125 1.375q-1.0 0.515625 -2.109375 0.515625q-1.09375 0 -2.09375 -0.5q-1.0 -0.515625 -1.53125 -1.375q-0.515625 -0.875 -0.515625 -1.828125q0 -0.953125 0.53125 -1.875q0.53125 -0.9375 1.53125 -1.46875q1.0 -0.53125 2.078125 -0.53125q1.09375 0 2.109375 0.546875q1.015625 0.546875 1.53125 1.46875q0.515625 0.90625 0.515625 1.875zm-1.609375 0.015625q0 -0.78125 -0.546875 -1.421875q-0.765625 -0.875 -2.0 -0.875q-1.078125 0 -1.8125 0.703125q-0.71875 0.6875 -0.71875 1.59375q0 0.75 0.734375 1.40625q0.734375 0.65625 1.796875 0.65625q1.078125 0 1.8125 -0.65625q0.734375 -0.65625 0.734375 -1.40625zm5.0546875 2.515625l0 2.640625l0.96875 0q0.578125 0 0.8125 0.21875q0.25 0.21875 0.25 0.578125q0 0.359375 -0.25 0.578125q-0.234375 0.21875 -0.8125 0.21875l-2.84375 0q-0.578125 0 -0.828125 -0.21875q-0.25 -0.21875 -0.25 -0.578125q0 -0.359375 0.25 -0.578125q0.265625 -0.21875 0.828125 -0.21875l0.28125 0l0 -7.25l-0.28125 0q-0.578125 0 -0.828125 -0.21875q-0.25 -0.21875 -0.25 -0.578125q0 -0.359375 0.25 -0.578125q0.25 -0.21875 0.828125 -0.21875l1.875 0l0 0.546875q0.5625 -0.390625 1.15625 -0.578125q0.609375 -0.1875 1.25 -0.1875q1.640625 0 2.796875 1.125q1.15625 1.109375 1.15625 2.546875q0 1.578125 -1.375 2.609375q-1.140625 0.859375 -2.5625 0.859375q-0.625 0 -1.234375 -0.171875q-0.59375 -0.1875 -1.1875 -0.546875zm4.75 -2.75q0 -0.328125 -0.265625 -0.84375q-0.265625 -0.53125 -0.8125 -0.875q-0.546875 -0.34375 -1.296875 -0.34375q-1.1875 0 -1.890625 0.890625q-0.484375 0.625 -0.484375 1.1875q0 0.640625 0.6875 1.25q0.6875 0.609375 1.6875 0.609375q1.015625 0 1.6875 -0.59375q0.6875 -0.609375 0.6875 -1.28125zm10.8671875 0.90625l-6.578125 0q0.25 0.625 0.890625 1.015625q0.640625 0.375 1.71875 0.375q0.890625 0 2.375 -0.390625q0.609375 -0.15625 0.84375 -0.15625q0.3125 0 0.53125 0.234375q0.21875 0.21875 0.21875 0.5625q0 0.3125 -0.234375 0.53125q-0.3125 0.296875 -1.53125 0.5625q-1.203125 0.265625 -2.3125 0.265625q-1.921875 0 -3.078125 -1.09375q-1.15625 -1.09375 -1.15625 -2.671875q0 -1.6875 1.25 -2.75q1.25 -1.0625 2.875 -1.0625q0.96875 0 1.78125 0.34375q0.828125 0.34375 1.21875 0.75q0.5625 0.578125 0.9375 1.421875q0.25 0.59375 0.25 1.375l0 0.6875zm-1.78125 -1.609375q-0.359375 -0.6875 -0.953125 -1.015625q-0.59375 -0.34375 -1.421875 -0.34375q-0.8125 0 -1.40625 0.34375q-0.59375 0.328125 -0.96875 1.015625l4.75 0zm7.0234375 -2.75l0 1.0q1.015625 -0.734375 1.59375 -0.96875q0.578125 -0.25 1.09375 -0.25q0.78125 0 1.515625 0.578125q0.5 0.390625 0.5 0.796875q0 0.34375 -0.25 0.59375q-0.234375 0.234375 -0.5625 0.234375q-0.296875 0 -0.625 -0.296875q-0.328125 -0.296875 -0.59375 -0.296875q-0.328125 0 -1.0 0.421875q-0.671875 0.421875 -1.671875 1.265625l0 2.40625l2.28125 0q0.578125 0 0.828125 0.234375q0.25 0.21875 0.25 0.578125q0 0.34375 -0.25 0.578125q-0.25 0.21875 -0.828125 0.21875l-4.828125 0q-0.578125 0 -0.828125 -0.21875q-0.25 -0.234375 -0.25 -0.59375q0 -0.34375 0.25 -0.5625q0.25 -0.234375 0.828125 -0.234375l0.953125 0l0 -3.890625l-0.578125 0q-0.578125 0 -0.828125 -0.21875q-0.25 -0.21875 -0.25 -0.578125q0 -0.359375 0.25 -0.578125q0.25 -0.21875 0.828125 -0.21875l2.171875 0z" fill-rule="nonzero"/></g></svg>