<svg version="1.1" viewBox="0.0 0.0 960.0 540.0" fill="none" stroke="none" stroke-linecap="square" stroke-miterlimit="10" xmlns:xlink="http://www.w3.org/1999/xlink" xmlns="http://www.w3.org/2000/svg"><clipPath id="ge7ae030bd1_0_11.0"><path d="m0 0l960.0 0l0 540.0l-960.0 0l0 -540.0z" clip-rule="nonzero"/></clipPath><g clip-path="url(#ge7ae030bd1_0_11.0)"><path fill="#ffffff" d="m0 0l960.0 0l0 540.0l-960.0 0z" fill-rule="evenodd"/><path fill="#000000" fill-opacity="0.0" d="m0 0l960.0 0l0 540.0l-960.0 0z" fill-rule="evenodd"/><path fill="#000000" d="m18.756714 256.69376q0 -0.890625 0.046875 -2.4375q0.046875 -1.5625 0.390625 -3.15625q0.359375 -1.59375 1.203125 -2.75q0.859375 -1.15625 2.453125 -1.15625q1.0 0 1.84375 0.453125q0.859375 0.453125 1.65625 1.15625q0.796875 0.703125 1.6875 1.609375q0.90625 0.890625 2.015625 1.6875q1.203125 0.90625 2.09375 1.3125q0.90625 0.390625 1.40625 0.6875q0.5 0.296875 0.75 0.75q0.25 0.453125 0.25 1.34375q0 1.3125 -0.359375 2.96875q-0.34375 1.640625 -0.796875 3.140625q-0.453125 1.5 -0.90625 2.65625q-0.4375 1.140625 -0.546875 1.4375q0 0.703125 0.046875 1.65625q0.0625 0.953125 0.203125 1.84375q0.15625 0.90625 0.65625 1.546875q0.5 0.65625 1.40625 0.65625q3.09375 0 6.546875 -0.609375q3.453125 -0.59375 5.953125 -2.59375q0.890625 -3.703125 1.09375 -7.34375q0.203125 -3.65625 0.203125 -6.546875q0 -9.0 0.25 -15.34375q0.25 -6.359375 0.4375 -11.609375q0.203125 -5.25 0.40625 -10.09375q0.203125 -4.859375 0.203125 -10.859375q0 -0.203125 -0.046875 -0.59375q-0.046875 -0.40625 -0.046875 -0.8125l0 -0.796875l-2.5 -0.59375l-9.90625 1.203125q-1.203125 0.1875 -2.5 1.0q-1.296875 0.796875 -2.453125 2.046875q-1.140625 1.25 -1.84375 2.796875q-0.703125 1.546875 -0.703125 3.15625q0 2.5 1.546875 3.40625q1.546875 0.890625 3.453125 1.140625q1.90625 0.25 3.453125 0.453125q1.546875 0.1875 1.546875 1.296875q0 1.390625 -1.953125 2.390625q-1.953125 1.0 -3.84375 1.0q-2.0 0 -3.703125 -1.09375q-1.703125 -1.09375 -3.0625 -2.640625q-1.34375 -1.5625 -2.09375 -3.25q-0.75 -1.703125 -0.75 -2.90625q0 -0.109375 0.203125 -1.203125q0.203125 -1.09375 0.953125 -2.796875q0.75 -1.703125 2.203125 -3.59375q1.453125 -1.90625 3.84375 -3.5q2.40625 -1.609375 5.953125 -2.703125q3.546875 -1.109375 8.546875 -1.109375q2.203125 0 3.75 0.203125q1.546875 0.203125 2.890625 0.40625q1.359375 0.1875 2.65625 0.390625q1.3125 0.203125 3.109375 0.203125q1.203125 0 2.890625 -0.09375q1.703125 -0.109375 3.296875 -0.203125q1.609375 -0.109375 2.90625 -0.203125q1.296875 -0.09375 1.796875 -0.09375q2.609375 0 3.453125 2.796875q0.859375 2.796875 0.859375 7.5q0 2.203125 0 6.546875q0 4.34375 -0.25 9.5q-0.25 5.15625 -0.75 10.5q-0.5 5.34375 -1.40625 9.546875q-2.203125 9.609375 -5.75 15.609375q-3.546875 6.0 -7.90625 9.34375q-4.34375 3.34375 -9.34375 4.546875q-5.0 1.203125 -10.0 1.203125q-4.09375 0 -7.59375 -1.0q-3.5 -1.0 -6.0625 -3.359375q-2.546875 -2.34375 -4.0 -6.234375q-1.4375 -3.90625 -1.4375 -9.8125zm5.1875 1.3125q0.5 4.5 1.09375 7.046875q0.609375 2.546875 2.71875 4.140625q0 -3.390625 0.25 -6.390625q0.25 -3.0 1.140625 -5.90625q-0.296875 -0.296875 -0.953125 -0.6875q-0.640625 -0.40625 -1.34375 -0.859375q-0.703125 -0.453125 -1.3125 -0.75q-0.59375 -0.296875 -0.6875 -0.296875q-0.59375 0 -0.796875 0.90625q-0.203125 0.890625 -0.203125 1.6875q0 0.5 0.046875 0.75q0.046875 0.25 0.046875 0.359375zm30.3125 -51.8125q0 6.8125 -0.203125 14.859375q-0.203125 8.046875 -0.5625 16.40625q-0.34375 8.34375 -0.953125 16.390625q-0.59375 8.046875 -1.28125 14.953125q3.0 -0.90625 5.6875 -3.65625q2.703125 -2.75 4.703125 -6.59375q2.0 -3.859375 3.34375 -8.453125q1.359375 -4.59375 1.65625 -9.09375q0.40625 -5.0 0.65625 -9.40625q0.25 -4.40625 0.4375 -7.953125q0.203125 -3.546875 0.296875 -5.9375q0.109375 -2.40625 0.109375 -3.3125q0 -0.59375 -0.046875 -1.796875q-0.046875 -1.203125 -0.046875 -2.453125q0 -1.25 -0.0625 -2.1875q-0.046875 -0.953125 -0.046875 -1.15625l-0.59375 -0.609375q-0.09375 -0.09375 -0.703125 -0.1875q-0.59375 -0.109375 -1.40625 -0.203125q-0.796875 -0.109375 -1.59375 -0.203125q-0.796875 -0.09375 -1.296875 -0.09375q-0.5 0 -1.65625 0.09375q-1.140625 0.09375 -2.453125 0.203125q-1.296875 0.09375 -2.453125 0.203125q-1.140625 0.09375 -1.53125 0.1875zm45.487442 62.90625q-1.5 0 -2.09375 0.046875q-0.59375 0.046875 -0.84375 0.046875q-0.25 0 -0.453125 0q-0.203125 0 -0.90625 0q-5.703125 0 -8.296875 -0.25q-2.59375 -0.25 -2.59375 -1.75q0 -0.5 0.296875 -1.09375q0.296875 -0.59375 1.09375 -0.90625q2.5 0 4.453125 0.109375q1.953125 0.09375 4.046875 0.09375q0 -7.203125 -0.546875 -13.796875q-0.546875 -6.59375 -0.546875 -13.796875q-0.40625 -0.703125 -1.0625 -1.0q-0.640625 -0.296875 -1.296875 -0.5q-0.640625 -0.203125 -1.09375 -0.65625q-0.453125 -0.453125 -0.453125 -1.546875q0 -1.09375 0.5 -1.34375q0.5 -0.25 1.140625 -0.296875q0.65625 -0.0625 1.3125 -0.15625q0.65625 -0.109375 0.953125 -0.796875q0 -0.40625 0 -1.40625q0 -1.0 0.046875 -2.203125q0.046875 -1.203125 0.046875 -2.25q0 -1.046875 0 -1.546875q0 -2.59375 0.046875 -4.546875q0.0625 -1.953125 0.0625 -3.75q0 -1.796875 -0.15625 -3.796875q-0.15625 -2.0 -0.453125 -4.703125q-0.390625 0.09375 -1.796875 0.09375q-1.40625 0 -2.5 0q-2.0 0 -3.046875 0q-1.046875 0 -1.546875 -0.046875q-0.5 -0.046875 -0.609375 -0.25q-0.09375 -0.203125 -0.09375 -0.59375q0 -2.3125 0.640625 -3.25q0.65625 -0.953125 2.5625 -0.953125q3.296875 0 6.34375 -0.046875q3.046875 -0.0625 5.65625 -0.0625q5.1875 0 10.390625 0.40625q5.203125 0.40625 10.5 0.40625q3.796875 0 7.640625 -0.203125q3.859375 -0.203125 7.46875 -1.609375q0.796875 -0.390625 1.34375 -0.890625q0.546875 -0.5 1.25 -0.5q0.703125 0 1.296875 0.546875q0.609375 0.546875 0.609375 1.34375q0 0.203125 -0.0625 0.265625q-0.046875 0.046875 -0.046875 0.140625l0 0.203125q-1.0 1.703125 -1.609375 2.75q-0.59375 1.046875 -1.046875 1.59375q-0.4375 0.546875 -0.84375 0.75q-0.390625 0.203125 -0.890625 0.203125q-0.90625 0 -6.40625 -0.203125q-5.5 -0.203125 -16.296875 0.296875q-0.609375 6.5 -0.859375 11.859375q-0.25 5.34375 -0.25 11.84375q2.8125 0 4.703125 -0.4375q1.90625 -0.453125 3.25 -1.0q1.359375 -0.5625 2.453125 -1.0q1.09375 -0.453125 2.203125 -0.453125q1.09375 0 1.6875 0.703125q0.609375 0.6875 0.609375 2.890625q0 2.40625 -1.046875 3.65625q-1.046875 1.25 -3.75 1.25q-1.296875 0 -2.453125 -0.40625q-1.15625 -0.40625 -1.453125 -1.5l-6.203125 0.40625q0 0 -0.09375 1.296875q-0.09375 1.296875 -0.203125 3.09375q-0.09375 1.796875 -0.203125 3.65625q-0.09375 1.84375 -0.09375 2.84375q0 0.203125 0 1.453125q0 1.25 0.046875 3.046875q0.046875 1.796875 0.09375 3.859375q0.0625 2.046875 0.15625 3.84375q0.109375 1.796875 0.15625 3.046875q0.046875 1.25 0.140625 1.359375l0.609375 1.1875q0.59375 0 1.9375 0.0625q1.359375 0.046875 3.0625 0.046875q1.703125 0 3.453125 0.046875q1.75 0.046875 2.9375 0.046875q5.609375 0 8.90625 -0.59375q3.296875 -0.609375 5.046875 -1.359375q1.75 -0.75 2.453125 -1.34375q0.703125 -0.59375 1.203125 -0.59375q3.59375 0 3.59375 3.390625l-0.203125 1.40625q-0.1875 1.296875 -0.390625 1.296875l-1.296875 1.296875q0 0 -1.0 0.09375q-1.0 0.109375 -2.40625 0.203125q-1.40625 0.109375 -2.859375 0.203125q-1.4375 0.109375 -2.34375 0.109375q-1.09375 0 -1.65625 0.046875q-0.546875 0.046875 -1.453125 0.046875q-0.890625 0 -2.640625 0q-1.75 0 -5.15625 0.046875q-3.390625 0.046875 -8.890625 0.140625q-5.5 0.109375 -13.90625 0.3125zm-2.796875 -38.59375q0 3.1875 0.09375 6.9375q0.109375 3.75 0.25 7.5q0.15625 3.75 0.359375 7.203125q0.203125 3.453125 0.390625 6.109375q0.203125 2.640625 0.453125 4.25q0.25 1.59375 0.453125 1.59375l0.609375 0.59375l7.59375 0.109375q0 -2.703125 -0.15625 -5.0q-0.140625 -2.296875 -0.296875 -4.640625q-0.140625 -2.359375 -0.296875 -4.953125q-0.15625 -2.609375 -0.15625 -5.90625q0 -6.296875 0.40625 -13.046875q0.40625 -6.75 0.40625 -13.859375q0 -1.09375 -0.0625 -2.796875q-0.046875 -1.703125 -0.046875 -3.203125l0 -3.703125l-9.796875 -0.5q0 0.109375 0 0.609375q0 0.5 -0.046875 1.796875q-0.046875 1.296875 -0.109375 3.703125q-0.046875 2.390625 -0.046875 6.390625l0 10.8125zm52.103058 37.390625q0 -1.203125 0.59375 -1.890625q0.609375 -0.703125 1.5 -1.0q0.90625 -0.3125 2.0 -0.40625q1.109375 -0.09375 2.109375 -0.09375q1.890625 0 2.234375 -1.046875q0.359375 -1.0625 0.359375 -2.953125q0 -2.703125 -0.359375 -5.09375q-0.34375 -2.40625 -0.34375 -5.21875q0 -3.0 0.296875 -5.4375q0.3125 -2.453125 0.3125 -5.75q-0.40625 0 -1.359375 0q-0.9375 0 -1.890625 -0.25q-0.953125 -0.25 -1.65625 -0.75q-0.703125 -0.5 -0.703125 -1.5q0 -0.90625 0.703125 -1.453125q0.703125 -0.546875 1.65625 -0.75q0.953125 -0.203125 1.84375 -0.25q0.90625 -0.046875 1.40625 -0.046875q0.5 -2.0 0.640625 -4.84375q0.15625 -2.859375 0.15625 -7.65625q0 -0.90625 0 -2.65625q0 -1.75 -0.046875 -3.703125q-0.046875 -1.953125 -0.046875 -3.703125q0 -1.75 0 -2.75l-0.703125 -2.5l-10.5 -1.296875q-1.0 -0.203125 -1.15625 -1.0q-0.140625 -0.796875 -0.140625 -1.5q0 -0.796875 0.140625 -1.4375q0.15625 -0.65625 1.15625 -1.0625q3.703125 0 7.296875 0.40625q3.59375 0.390625 7.1875 0.890625q3.609375 0.5 7.203125 0.90625q3.609375 0.40625 7.203125 0.40625q0.40625 0 1.15625 0q0.75 0 1.453125 0q0.703125 0 1.296875 -0.046875q0.59375 -0.0625 0.703125 -0.0625l19.796875 -3.703125l9.296875 0l0.609375 1.203125q0 1.5 0.140625 3.703125q0.15625 2.203125 0.15625 5.40625q0 2.5 -0.703125 4.546875q-0.703125 2.046875 -3.09375 2.046875l-0.90625 0q-0.296875 0 -0.5 -0.09375l-9.40625 -10.0l-1.09375 0q-1.203125 0 -4.0625 0.203125q-2.84375 0.1875 -5.796875 0.546875q-2.9375 0.34375 -5.1875 0.796875q-2.25 0.453125 -2.359375 0.953125q-0.296875 2.6875 -0.40625 4.75q-0.09375 2.046875 -0.1875 4.0q-0.09375 1.9375 -0.09375 3.890625q0 1.953125 0 4.453125l0 6.40625q0.796875 0.6875 2.34375 1.0q1.546875 0.296875 2.453125 0.296875q1.296875 -0.109375 2.390625 -0.40625q1.0 -0.203125 1.953125 -0.453125q0.953125 -0.25 1.453125 -0.4375q0.90625 -0.40625 1.15625 -1.40625q0.25 -1.0 0.5 -2.046875q0.25 -1.046875 0.59375 -1.890625q0.34375 -0.859375 1.453125 -0.859375q0.890625 0 1.390625 0.5q0.5 0.5 0.75 1.203125q0.25 0.6875 0.296875 1.4375q0.0625 0.75 0.0625 1.25q0 1.109375 -0.25 3.40625q-0.25 2.296875 -0.75 4.546875q-0.5 2.25 -1.3125 3.953125q-0.796875 1.703125 -1.984375 1.703125l-1.0 -0.40625q-0.90625 -0.390625 -0.90625 -0.703125l0 -5.6875l-9.90625 0l-0.6875 1.296875l0 6.296875q0 5.5 0.09375 10.203125q0.09375 4.703125 0.59375 10.203125q0.109375 0.59375 1.109375 0.59375q1.890625 0 3.6875 -0.296875q1.8125 -0.296875 3.609375 -0.296875q1.296875 0 2.046875 0.453125q0.75 0.4375 0.75 1.734375q0 0.90625 -0.546875 1.453125q-0.546875 0.546875 -1.296875 0.796875q-0.75 0.25 -1.609375 0.34375q-0.84375 0.109375 -1.546875 0.109375q-7.09375 0.203125 -14.25 0.453125q-7.140625 0.25 -14.34375 0.25q-2.609375 0 -4.40625 -0.203125q-1.796875 -0.203125 -1.796875 -2.0zm12.296875 -12.703125q0 0.8125 0 2.0625q0 1.25 0.046875 2.5q0.0625 1.25 0.109375 2.25q0.046875 1.0 0.046875 1.1875l0.59375 1.3125l3.0 0q1.8125 0 3.8125 -0.09375q2.0 -0.109375 3.796875 -0.515625q0.5 -0.203125 0.59375 -0.640625q0.109375 -0.453125 0.109375 -1.0625q0 -0.5 -0.0625 -0.890625q-0.046875 -0.40625 -0.046875 -0.609375q0 -0.6875 0.09375 -3.53125q0.109375 -2.859375 0.15625 -6.0625q0.046875 -3.203125 0.140625 -6.046875q0.109375 -2.859375 0.109375 -3.546875q0 -3.109375 -0.109375 -5.796875q-0.09375 -2.703125 -0.1875 -5.296875q-0.09375 -2.609375 -0.203125 -5.453125q-0.09375 -2.859375 -0.09375 -6.359375q0 -2.90625 0 -5.59375q0 -2.703125 0.09375 -3.8125l-0.59375 -1.1875l-8.796875 -1.8125l-0.609375 1.203125q-0.09375 0.109375 -0.203125 2.109375q-0.09375 2.0 -0.25 5.15625q-0.140625 3.140625 -0.34375 7.046875q-0.203125 3.890625 -0.40625 7.84375q-0.1875 3.953125 -0.34375 7.546875q-0.15625 3.59375 -0.25 6.203125q0 0.390625 -0.046875 1.953125q-0.046875 1.546875 -0.109375 3.453125q-0.046875 1.890625 -0.046875 3.75q0 1.84375 0 2.734375zm41.0 -51.296875q0 1.296875 1.203125 2.15625q1.203125 0.84375 2.0 1.34375q0.203125 -0.296875 0.390625 -1.25q0.203125 -0.953125 0.203125 -1.25q0 -1.390625 -0.25 -1.640625q-0.25 -0.25 -1.140625 -0.25q-0.5 0 -1.453125 0.09375q-0.953125 0.09375 -0.953125 0.796875zm13.903061 64.0q0 -1.203125 0.59375 -1.890625q0.609375 -0.703125 1.5 -1.0q0.90625 -0.3125 2.0 -0.40625q1.109375 -0.09375 2.109375 -0.09375q1.890625 0 2.234375 -1.046875q0.359375 -1.0625 0.359375 -2.953125q0 -2.703125 -0.359375 -5.09375q-0.34375 -2.40625 -0.34375 -5.21875q0 -3.0 0.296875 -5.4375q0.3125 -2.453125 0.3125 -5.75q-0.40625 0 -1.359375 0q-0.9375 0 -1.890625 -0.25q-0.953125 -0.25 -1.65625 -0.75q-0.703125 -0.5 -0.703125 -1.5q0 -0.90625 0.703125 -1.453125q0.703125 -0.546875 1.65625 -0.75q0.953125 -0.203125 1.84375 -0.25q0.90625 -0.046875 1.40625 -0.046875q0.5 -2.0 0.640625 -4.84375q0.15625 -2.859375 0.15625 -7.65625q0 -0.90625 0 -2.65625q0 -1.75 -0.046875 -3.703125q-0.046875 -1.953125 -0.046875 -3.703125q0 -1.75 0 -2.75l-0.703125 -2.5l-10.5 -1.296875q-1.0 -0.203125 -1.15625 -1.0q-0.140625 -0.796875 -0.140625 -1.5q0 -0.796875 0.140625 -1.4375q0.15625 -0.65625 1.15625 -1.0625q3.703125 0 7.296875 0.40625q3.59375 0.390625 7.1875 0.890625q3.609375 0.5 7.203125 0.90625q3.609375 0.40625 7.203125 0.40625q0.40625 0 1.15625 0q0.75 0 1.453125 0q0.703125 0 1.296875 -0.046875q0.59375 -0.0625 0.703125 -0.0625l19.796875 -3.703125l9.296875 0l0.609375 1.203125q0 1.5 0.140625 3.703125q0.15625 2.203125 0.15625 5.40625q0 2.5 -0.703125 4.546875q-0.703125 2.046875 -3.09375 2.046875l-0.90625 0q-0.296875 0 -0.5 -0.09375l-9.40625 -10.0l-1.09375 0q-1.203125 0 -4.0625 0.203125q-2.84375 0.1875 -5.796875 0.546875q-2.9375 0.34375 -5.1875 0.796875q-2.25 0.453125 -2.359375 0.953125q-0.296875 2.6875 -0.40625 4.75q-0.09375 2.046875 -0.1875 4.0q-0.09375 1.9375 -0.09375 3.890625q0 1.953125 0 4.453125l0 6.40625q0.796875 0.6875 2.34375 1.0q1.546875 0.296875 2.453125 0.296875q1.296875 -0.109375 2.390625 -0.40625q1.0 -0.203125 1.953125 -0.453125q0.953125 -0.25 1.453125 -0.4375q0.90625 -0.40625 1.15625 -1.40625q0.25 -1.0 0.5 -2.046875q0.25 -1.046875 0.59375 -1.890625q0.34375 -0.859375 1.453125 -0.859375q0.890625 0 1.390625 0.5q0.5 0.5 0.75 1.203125q0.25 0.6875 0.296875 1.4375q0.0625 0.75 0.0625 1.25q0 1.109375 -0.25 3.40625q-0.25 2.296875 -0.75 4.546875q-0.5 2.25 -1.3125 3.953125q-0.796875 1.703125 -1.984375 1.703125l-1.0 -0.40625q-0.90625 -0.390625 -0.90625 -0.703125l0 -5.6875l-9.90625 0l-0.6875 1.296875l0 6.296875q0 5.5 0.09375 10.203125q0.09375 4.703125 0.59375 10.203125q0.109375 0.59375 1.109375 0.59375q1.890625 0 3.6875 -0.296875q1.8125 -0.296875 3.609375 -0.296875q1.296875 0 2.046875 0.453125q0.75 0.4375 0.75 1.734375q0 0.90625 -0.546875 1.453125q-0.546875 0.546875 -1.296875 0.796875q-0.75 0.25 -1.609375 0.34375q-0.84375 0.109375 -1.546875 0.109375q-7.09375 0.203125 -14.25 0.453125q-7.140625 0.25 -14.34375 0.25q-2.609375 0 -4.40625 -0.203125q-1.796875 -0.203125 -1.796875 -2.0zm12.296875 -12.703125q0 0.8125 0 2.0625q0 1.25 0.046875 2.5q0.0625 1.25 0.109375 2.25q0.046875 1.0 0.046875 1.1875l0.59375 1.3125l3.0 0q1.8125 0 3.8125 -0.09375q2.0 -0.109375 3.796875 -0.515625q0.5 -0.203125 0.59375 -0.640625q0.109375 -0.453125 0.109375 -1.0625q0 -0.5 -0.0625 -0.890625q-0.046875 -0.40625 -0.046875 -0.609375q0 -0.6875 0.09375 -3.53125q0.109375 -2.859375 0.15625 -6.0625q0.046875 -3.203125 0.140625 -6.046875q0.109375 -2.859375 0.109375 -3.546875q0 -3.109375 -0.109375 -5.796875q-0.09375 -2.703125 -0.1875 -5.296875q-0.09375 -2.609375 -0.203125 -5.453125q-0.09375 -2.859375 -0.09375 -6.359375q0 -2.90625 0 -5.59375q0 -2.703125 0.09375 -3.8125l-0.59375 -1.1875l-8.796875 -1.8125l-0.609375 1.203125q-0.09375 0.109375 -0.203125 2.109375q-0.09375 2.0 -0.25 5.15625q-0.140625 3.140625 -0.34375 7.046875q-0.203125 3.890625 -0.40625 7.84375q-0.1875 3.953125 -0.34375 7.546875q-0.15625 3.59375 -0.25 6.203125q0 0.390625 -0.046875 1.953125q-0.046875 1.546875 -0.109375 3.453125q-0.046875 1.890625 -0.046875 3.75q0 1.84375 0 2.734375zm41.0 -51.296875q0 1.296875 1.203125 2.15625q1.203125 0.84375 2.0 1.34375q0.203125 -0.296875 0.390625 -1.25q0.203125 -0.953125 0.203125 -1.25q0 -1.390625 -0.25 -1.640625q-0.25 -0.25 -1.140625 -0.25q-0.5 0 -1.453125 0.09375q-0.953125 0.09375 -0.953125 0.796875zm37.903046 64.0q0 -1.203125 0.59375 -1.890625q0.609375 -0.703125 1.5 -1.0q0.90625 -0.3125 2.0 -0.40625q1.109375 -0.09375 2.109375 -0.09375q1.890625 0 2.234375 -1.046875q0.359375 -1.0625 0.359375 -2.953125q0 -2.703125 -0.359375 -5.09375q-0.34375 -2.40625 -0.34375 -5.21875q0 -3.0 0.296875 -5.4375q0.3125 -2.453125 0.3125 -5.75q-0.40625 0 -1.359375 0q-0.9375 0 -1.890625 -0.25q-0.953125 -0.25 -1.65625 -0.75q-0.703125 -0.5 -0.703125 -1.5q0 -0.90625 0.703125 -1.453125q0.703125 -0.546875 1.65625 -0.75q0.953125 -0.203125 1.84375 -0.25q0.90625 -0.046875 1.40625 -0.046875q0.5 -2.0 0.640625 -4.84375q0.15625 -2.859375 0.15625 -7.65625q0 -0.90625 0 -2.65625q0 -1.75 -0.046875 -3.703125q-0.046875 -1.953125 -0.046875 -3.703125q0 -1.75 0 -2.75l-0.703125 -2.5l-10.5 -1.296875q-1.0 -0.203125 -1.15625 -1.0q-0.140625 -0.796875 -0.140625 -1.5q0 -0.796875 0.140625 -1.4375q0.15625 -0.65625 1.15625 -1.0625q3.703125 0 7.296875 0.40625q3.59375 0.390625 7.1875 0.890625q3.609375 0.5 7.203125 0.90625q3.609375 0.40625 7.203125 0.40625q0.40625 0 1.15625 0q0.75 0 1.453125 0q0.703125 0 1.296875 -0.046875q0.59375 -0.0625 0.703125 -0.0625l19.796875 -3.703125l9.296875 0l0.609375 1.203125q0 1.5 0.140625 3.703125q0.15625 2.203125 0.15625 5.40625q0 2.5 -0.703125 4.546875q-0.703125 2.046875 -3.09375 2.046875l-0.90625 0q-0.296875 0 -0.5 -0.09375l-9.40625 -10.0l-1.09375 0q-1.203125 0 -4.0625 0.203125q-2.84375 0.1875 -5.796875 0.546875q-2.9375 0.34375 -5.1875 0.796875q-2.25 0.453125 -2.359375 0.953125q-0.296875 2.6875 -0.40625 4.75q-0.09375 2.046875 -0.1875 4.0q-0.09375 1.9375 -0.09375 3.890625q0 1.953125 0 4.453125l0 6.40625q0.796875 0.6875 2.34375 1.0q1.546875 0.296875 2.453125 0.296875q1.296875 -0.109375 2.390625 -0.40625q1.0 -0.203125 1.953125 -0.453125q0.953125 -0.25 1.453125 -0.4375q0.90625 -0.40625 1.15625 -1.40625q0.25 -1.0 0.5 -2.046875q0.25 -1.046875 0.59375 -1.890625q0.34375 -0.859375 1.453125 -0.859375q0.890625 0 1.390625 0.5q0.5 0.5 0.75 1.203125q0.25 0.6875 0.296875 1.4375q0.0625 0.75 0.0625 1.25q0 1.109375 -0.25 3.40625q-0.25 2.296875 -0.75 4.546875q-0.5 2.25 -1.3125 3.953125q-0.796875 1.703125 -1.984375 1.703125l-1.0 -0.40625q-0.90625 -0.390625 -0.90625 -0.703125l0 -5.6875l-9.90625 0l-0.6875 1.296875l0 6.296875q0 5.5 0.09375 10.203125q0.09375 4.703125 0.59375 10.203125q0.109375 0.59375 1.109375 0.59375q1.890625 0 3.6875 -0.296875q1.8125 -0.296875 3.609375 -0.296875q1.296875 0 2.046875 0.453125q0.75 0.4375 0.75 1.734375q0 0.90625 -0.546875 1.453125q-0.546875 0.546875 -1.296875 0.796875q-0.75 0.25 -1.609375 0.34375q-0.84375 0.109375 -1.546875 0.109375q-7.09375 0.203125 -14.25 0.453125q-7.140625 0.25 -14.34375 0.25q-2.609375 0 -4.40625 -0.203125q-1.796875 -0.203125 -1.796875 -2.0zm12.296875 -12.703125q0 0.8125 0 2.0625q0 1.25 0.046875 2.5q0.0625 1.25 0.109375 2.25q0.046875 1.0 0.046875 1.1875l0.59375 1.3125l3.0 0q1.8125 0 3.8125 -0.09375q2.0 -0.109375 3.796875 -0.515625q0.5 -0.203125 0.59375 -0.640625q0.109375 -0.453125 0.109375 -1.0625q0 -0.5 -0.0625 -0.890625q-0.046875 -0.40625 -0.046875 -0.609375q0 -0.6875 0.09375 -3.53125q0.109375 -2.859375 0.15625 -6.0625q0.046875 -3.203125 0.140625 -6.046875q0.109375 -2.859375 0.109375 -3.546875q0 -3.109375 -0.109375 -5.796875q-0.09375 -2.703125 -0.1875 -5.296875q-0.09375 -2.609375 -0.203125 -5.453125q-0.09375 -2.859375 -0.09375 -6.359375q0 -2.90625 0 -5.59375q0 -2.703125 0.09375 -3.8125l-0.59375 -1.1875l-8.796875 -1.8125l-0.609375 1.203125q-0.09375 0.109375 -0.203125 2.109375q-0.09375 2.0 -0.25 5.15625q-0.140625 3.140625 -0.34375 7.046875q-0.203125 3.890625 -0.40625 7.84375q-0.1875 3.953125 -0.34375 7.546875q-0.15625 3.59375 -0.25 6.203125q0 0.390625 -0.046875 1.953125q-0.046875 1.546875 -0.109375 3.453125q-0.046875 1.890625 -0.046875 3.75q0 1.84375 0 2.734375zm41.0 -51.296875q0 1.296875 1.203125 2.15625q1.203125 0.84375 2.0 1.34375q0.203125 -0.296875 0.390625 -1.25q0.203125 -0.953125 0.203125 -1.25q0 -1.390625 -0.25 -1.640625q-0.25 -0.25 -1.140625 -0.25q-0.5 0 -1.453125 0.09375q-0.953125 0.09375 -0.953125 0.796875zm43.403076 66.609375q-6.796875 0 -12.609375 -2.609375q-5.796875 -2.59375 -10.140625 -6.84375q-4.34375 -4.25 -6.796875 -9.75q-2.453125 -5.5 -2.453125 -11.296875q0 -4.3125 0.75 -9.0625q0.75 -4.75 2.390625 -9.390625q1.65625 -4.65625 4.25 -8.84375q2.609375 -4.203125 6.203125 -7.515625q3.703125 -3.296875 8.84375 -5.234375q5.15625 -1.953125 11.359375 -1.953125q10.703125 0 17.65625 3.09375q6.953125 3.09375 11.046875 7.953125q4.09375 4.84375 5.75 10.75q1.65625 5.890625 1.65625 11.5q0 9.203125 -2.8125 16.453125q-2.796875 7.25 -7.84375 12.296875q-5.046875 5.046875 -12.0 7.75q-6.953125 2.703125 -15.25 2.703125zm-12.0 -31.703125q0 3.296875 0.75 6.84375q0.75 3.546875 2.0 7.15625q1.25 3.59375 3.046875 7.046875q1.796875 3.453125 3.90625 6.453125q0.203125 0.5 1.046875 0.65625q0.84375 0.140625 1.65625 0.140625q2.09375 0 4.1875 -0.296875q2.109375 -0.296875 3.90625 -1.046875q1.796875 -0.75 3.140625 -2.09375q1.359375 -1.359375 1.953125 -3.46875q1.109375 -4.1875 2.15625 -7.140625q1.046875 -2.953125 1.84375 -5.546875q0.8125 -2.609375 1.3125 -5.359375q0.5 -2.75 0.5 -6.75q0 -2.203125 -0.3125 -5.5q-0.296875 -3.296875 -1.0 -6.9375q-0.6875 -3.65625 -1.84375 -7.359375q-1.15625 -3.703125 -2.90625 -6.640625q-1.75 -2.953125 -4.09375 -4.796875q-2.34375 -1.859375 -5.34375 -1.859375q-3.203125 0 -5.609375 1.90625q-2.390625 1.890625 -4.203125 4.9375q-1.796875 3.046875 -2.953125 7.0q-1.140625 3.953125 -1.84375 8.0q-0.703125 4.046875 -1.0 7.90625q-0.296875 3.84375 -0.296875 6.75zm-14.703125 -0.703125q0 3.40625 1.046875 7.8125q1.0625 4.390625 3.3125 8.4375q2.25 4.046875 5.640625 7.0q3.40625 2.953125 8.109375 3.453125q0 -0.109375 0.046875 -0.203125q0.046875 -0.09375 0.046875 -0.203125q-1.59375 -3.09375 -3.09375 -6.296875q-1.5 -3.203125 -2.703125 -6.59375q-1.203125 -3.40625 -1.953125 -6.953125q-0.75 -3.546875 -0.75 -7.359375q0 -6.296875 2.046875 -14.34375q2.046875 -8.046875 5.859375 -18.25q-3.90625 0.703125 -6.703125 2.953125q-2.796875 2.25 -4.75 5.453125q-1.953125 3.1875 -3.15625 6.890625q-1.203125 3.703125 -1.859375 7.203125q-0.640625 3.5 -0.890625 6.453125q-0.25 2.953125 -0.25 4.546875zm50.90625 -4.203125q0 3.109375 -0.859375 7.0625q-0.84375 3.9375 -2.046875 8.09375q-1.203125 4.140625 -2.5 7.953125q-1.296875 3.796875 -2.203125 6.59375q8.3125 -4.59375 12.5 -13.25q4.203125 -8.65625 4.203125 -20.546875q0 -4.203125 -1.5 -8.25q-1.5 -4.046875 -4.0 -7.546875q-2.5 -3.5 -5.90625 -6.25q-3.390625 -2.75 -7.09375 -4.359375q3.0 3.609375 4.796875 7.453125q1.8125 3.84375 2.859375 7.75q1.046875 3.90625 1.390625 7.75q0.359375 3.84375 0.359375 7.546875zm29.30304 29.796875q0 -0.59375 -0.0625 -2.84375q-0.046875 -2.25 -0.046875 -4.84375q0 -1.609375 0 -3.0q0 -1.40625 0.203125 -2.5q0 -1.8125 -0.046875 -3.703125q-0.046875 -1.90625 -0.15625 -3.59375q-0.09375 -1.703125 -0.15625 -2.953125q-0.046875 -1.25 -0.046875 -1.75q-0.59375 -0.109375 -1.453125 -0.25q-0.84375 -0.15625 -1.59375 -0.359375q-0.75 -0.203125 -1.25 -0.546875q-0.5 -0.34375 -0.5 -0.953125q0 -0.890625 0.59375 -1.640625q0.609375 -0.75 1.359375 -1.5q0.75 -0.75 1.5 -1.59375q0.75 -0.859375 0.953125 -1.859375q0.09375 -0.40625 0.484375 -3.046875q0.40625 -2.65625 0.8125 -5.859375q0.40625 -3.203125 0.75 -6.0q0.34375 -2.796875 0.34375 -3.5q0 -0.296875 -0.046875 -1.25q-0.046875 -0.953125 -0.046875 -2.0q0 -1.046875 -0.046875 -1.890625q-0.046875 -0.859375 -0.046875 -1.15625q-0.5 0 -1.453125 0.109375q-0.953125 0.09375 -2.15625 0.140625q-1.203125 0.046875 -2.359375 0.15625q-1.140625 0.09375 -1.9375 0.09375q-2.09375 0 -2.09375 -2.203125q0 -0.296875 0.640625 -0.640625q0.65625 -0.359375 1.546875 -0.703125q0.90625 -0.359375 1.75 -0.546875q0.859375 -0.203125 1.359375 -0.203125q0.59375 0 1.296875 0.046875q0.703125 0.046875 0.90625 0.046875q0.796875 0 3.09375 -0.140625q2.296875 -0.15625 5.34375 -0.296875q3.0625 -0.15625 6.5 -0.296875q3.453125 -0.15625 6.546875 -0.3125q3.109375 -0.15625 5.453125 -0.25q2.359375 -0.09375 3.15625 -0.09375q0.5 0 1.25 0.046875q0.75 0.046875 1.390625 0.25q0.65625 0.203125 1.15625 0.65625q0.5 0.4375 0.5 1.140625q0 1.59375 -1.59375 2.203125q-0.203125 0.09375 -1.3125 0.25q-1.09375 0.140625 -2.296875 0.34375q-1.1875 0.203125 -2.296875 0.453125q-1.09375 0.25 -1.296875 0.34375q0 0 -0.203125 0.5625q-0.203125 0.546875 -0.453125 1.203125q-0.25 0.640625 -0.5 1.390625q-0.25 0.75 -0.34375 1.25q-0.09375 0.296875 -0.25 1.90625q-0.15625 1.59375 -0.40625 3.84375q-0.25 2.25 -0.5 4.796875q-0.25 2.546875 -0.5 4.796875q-0.25 2.25 -0.40625 3.859375q-0.140625 1.59375 -0.234375 2.0q-0.5 2.796875 -0.65625 6.453125q-0.140625 3.640625 -0.140625 7.4375q0 3.3125 0.046875 6.40625q0.046875 3.09375 0.046875 5.59375q0 2.5 0.640625 3.953125q0.65625 1.453125 3.765625 1.453125q2.0 0 3.796875 0.25q1.796875 0.25 3.5 0.25q1.09375 0 2.1875 -0.203125q1.109375 -0.203125 2.203125 -0.703125q0.40625 -0.1875 1.609375 -0.734375q1.203125 -0.5625 2.453125 -1.25q1.25 -0.703125 2.390625 -1.40625q1.15625 -0.703125 1.65625 -1.203125q0.890625 -0.796875 2.84375 -2.84375q1.953125 -2.0625 4.09375 -4.359375q2.15625 -2.296875 4.046875 -4.34375q1.90625 -2.046875 2.71875 -2.953125q1.6875 0.59375 2.34375 2.25q0.65625 1.65625 0.65625 3.953125q0 0.796875 -0.25 2.65625q-0.25 1.84375 -0.703125 4.046875q-0.453125 2.1875 -1.109375 4.546875q-0.640625 2.34375 -1.546875 4.25q-0.890625 1.890625 -2.0 3.140625q-1.09375 1.25 -2.390625 1.25q-4.703125 0 -9.265625 -0.75q-4.546875 -0.75 -9.34375 -0.75q-0.390625 0 -1.046875 0q-0.65625 0 -1.3125 0.046875q-0.640625 0.0625 -1.09375 0.0625q-0.4375 0 -0.546875 0q-6.703125 0.890625 -13.0 1.296875q-6.296875 0.40625 -13.203125 0.40625q-3.5 0 -6.34375 -0.203125q-2.84375 -0.203125 -6.546875 -1.296875q-1.296875 -0.40625 -1.609375 -1.109375q-0.296875 -0.703125 -0.296875 -3.203125l10.609375 0zm4.296875 0q0.5 0.90625 0.890625 1.15625q0.40625 0.25 1.203125 0.25q0.40625 0 1.65625 -0.203125q1.25 -0.203125 2.640625 -0.5q1.40625 -0.296875 2.546875 -0.5q1.15625 -0.203125 1.265625 -0.203125q0.09375 -0.09375 0.296875 -0.640625q0.203125 -0.546875 0.390625 -1.25q0.203125 -0.703125 0.40625 -1.40625q0.203125 -0.703125 0.296875 -1.203125q0.609375 -2.796875 1.046875 -7.6875q0.453125 -4.90625 0.75 -10.609375q0.3125 -5.703125 0.5 -11.59375q0.203125 -5.90625 0.34375 -10.75q0.15625 -4.859375 0.203125 -8.0q0.0625 -3.15625 0.0625 -3.359375l0 -1.59375l-11.203125 0l-1.5 3.0q-0.09375 0.203125 -0.296875 2.90625q-0.203125 2.6875 -0.453125 6.6875q-0.25 4.0 -0.5 8.859375q-0.25 4.84375 -0.5 9.453125q-0.25 4.59375 -0.5 8.34375q-0.25 3.75 -0.453125 5.65625q0 0.1875 0.09375 1.0q0.109375 0.796875 0.25 1.84375q0.15625 1.046875 0.296875 2.109375q0.15625 1.046875 0.15625 1.640625q0 0.40625 0 1.359375q0 0.9375 0 2.0q0 1.046875 0.046875 1.953125q0.0625 0.890625 0.0625 1.28125zm51.09375 -11.5q-1.09375 1.203125 -2.5 2.765625q-1.390625 1.546875 -3.046875 3.140625q-1.65625 1.59375 -3.5625 3.0q-1.890625 1.40625 -4.09375 2.296875q1.0 0.203125 2.90625 0.25q1.90625 0.046875 3.296875 0.046875q4.203125 0 5.59375 -2.890625q1.40625 -2.90625 1.40625 -8.609375zm19.70929 11.5q0 -0.59375 -0.0625 -2.84375q-0.046875 -2.25 -0.046875 -4.84375q0 -1.609375 0 -3.0q0 -1.40625 0.203125 -2.5q0 -1.8125 -0.046875 -3.703125q-0.046875 -1.90625 -0.15625 -3.59375q-0.09375 -1.703125 -0.15625 -2.953125q-0.046875 -1.25 -0.046875 -1.75q-0.59375 -0.109375 -1.453125 -0.25q-0.84375 -0.15625 -1.59375 -0.359375q-0.75 -0.203125 -1.25 -0.546875q-0.5 -0.34375 -0.5 -0.953125q0 -0.890625 0.59375 -1.640625q0.609375 -0.75 1.359375 -1.5q0.75 -0.75 1.5 -1.59375q0.75 -0.859375 0.953125 -1.859375q0.09375 -0.40625 0.484375 -3.046875q0.40625 -2.65625 0.8125 -5.859375q0.40625 -3.203125 0.75 -6.0q0.34375 -2.796875 0.34375 -3.5q0 -0.296875 -0.046875 -1.25q-0.046875 -0.953125 -0.046875 -2.0q0 -1.046875 -0.046875 -1.890625q-0.046875 -0.859375 -0.046875 -1.15625q-0.5 0 -1.453125 0.109375q-0.953125 0.09375 -2.15625 0.140625q-1.203125 0.046875 -2.359375 0.15625q-1.140625 0.09375 -1.9375 0.09375q-2.09375 0 -2.09375 -2.203125q0 -0.296875 0.640625 -0.640625q0.65625 -0.359375 1.546875 -0.703125q0.90625 -0.359375 1.75 -0.546875q0.859375 -0.203125 1.359375 -0.203125q0.59375 0 1.296875 0.046875q0.703125 0.046875 0.90625 0.046875q0.796875 0 3.09375 -0.140625q2.296875 -0.15625 5.34375 -0.296875q3.0625 -0.15625 6.5 -0.296875q3.453125 -0.15625 6.546875 -0.3125q3.109375 -0.15625 5.453125 -0.25q2.359375 -0.09375 3.15625 -0.09375q0.5 0 1.25 0.046875q0.75 0.046875 1.390625 0.25q0.65625 0.203125 1.15625 0.65625q0.5 0.4375 0.5 1.140625q0 1.59375 -1.59375 2.203125q-0.203125 0.09375 -1.3125 0.25q-1.09375 0.140625 -2.296875 0.34375q-1.1875 0.203125 -2.296875 0.453125q-1.09375 0.25 -1.296875 0.34375q0 0 -0.203125 0.5625q-0.203125 0.546875 -0.453125 1.203125q-0.25 0.640625 -0.5 1.390625q-0.25 0.75 -0.34375 1.25q-0.09375 0.296875 -0.25 1.90625q-0.15625 1.59375 -0.40625 3.84375q-0.25 2.25 -0.5 4.796875q-0.25 2.546875 -0.5 4.796875q-0.25 2.25 -0.40625 3.859375q-0.140625 1.59375 -0.234375 2.0q-0.5 2.796875 -0.65625 6.453125q-0.140625 3.640625 -0.140625 7.4375q0 3.3125 0.046875 6.40625q0.046875 3.09375 0.046875 5.59375q0 2.5 0.640625 3.953125q0.65625 1.453125 3.765625 1.453125q2.0 0 3.796875 0.25q1.796875 0.25 3.5 0.25q1.09375 0 2.1875 -0.203125q1.109375 -0.203125 2.203125 -0.703125q0.40625 -0.1875 1.609375 -0.734375q1.203125 -0.5625 2.453125 -1.25q1.25 -0.703125 2.390625 -1.40625q1.15625 -0.703125 1.65625 -1.203125q0.890625 -0.796875 2.84375 -2.84375q1.953125 -2.0625 4.09375 -4.359375q2.15625 -2.296875 4.046875 -4.34375q1.90625 -2.046875 2.71875 -2.953125q1.6875 0.59375 2.34375 2.25q0.65625 1.65625 0.65625 3.953125q0 0.796875 -0.25 2.65625q-0.25 1.84375 -0.703125 4.046875q-0.453125 2.1875 -1.109375 4.546875q-0.640625 2.34375 -1.546875 4.25q-0.890625 1.890625 -2.0 3.140625q-1.09375 1.25 -2.390625 1.25q-4.703125 0 -9.265625 -0.75q-4.546875 -0.75 -9.34375 -0.75q-0.390625 0 -1.046875 0q-0.65625 0 -1.3125 0.046875q-0.640625 0.0625 -1.09375 0.0625q-0.4375 0 -0.546875 0q-6.703125 0.890625 -13.0 1.296875q-6.296875 0.40625 -13.203125 0.40625q-3.5 0 -6.34375 -0.203125q-2.84375 -0.203125 -6.546875 -1.296875q-1.296875 -0.40625 -1.609375 -1.109375q-0.296875 -0.703125 -0.296875 -3.203125l10.609375 0zm4.296875 0q0.5 0.90625 0.890625 1.15625q0.40625 0.25 1.203125 0.25q0.40625 0 1.65625 -0.203125q1.25 -0.203125 2.640625 -0.5q1.40625 -0.296875 2.546875 -0.5q1.15625 -0.203125 1.265625 -0.203125q0.09375 -0.09375 0.296875 -0.640625q0.203125 -0.546875 0.390625 -1.25q0.203125 -0.703125 0.40625 -1.40625q0.203125 -0.703125 0.296875 -1.203125q0.609375 -2.796875 1.046875 -7.6875q0.453125 -4.90625 0.75 -10.609375q0.3125 -5.703125 0.5 -11.59375q0.203125 -5.90625 0.34375 -10.75q0.15625 -4.859375 0.203125 -8.0q0.0625 -3.15625 0.0625 -3.359375l0 -1.59375l-11.203125 0l-1.5 3.0q-0.09375 0.203125 -0.296875 2.90625q-0.203125 2.6875 -0.453125 6.6875q-0.25 4.0 -0.5 8.859375q-0.25 4.84375 -0.5 9.453125q-0.25 4.59375 -0.5 8.34375q-0.25 3.75 -0.453125 5.65625q0 0.1875 0.09375 1.0q0.109375 0.796875 0.25 1.84375q0.15625 1.046875 0.296875 2.109375q0.15625 1.046875 0.15625 1.640625q0 0.40625 0 1.359375q0 0.9375 0 2.0q0 1.046875 0.046875 1.953125q0.0625 0.890625 0.0625 1.28125zm51.09375 -11.5q-1.09375 1.203125 -2.5 2.765625q-1.390625 1.546875 -3.046875 3.140625q-1.65625 1.59375 -3.5625 3.0q-1.890625 1.40625 -4.09375 2.296875q1.0 0.203125 2.90625 0.25q1.90625 0.046875 3.296875 0.046875q4.203125 0 5.59375 -2.890625q1.40625 -2.90625 1.40625 -8.609375zm24.89679 16.90625q-1.5 0 -2.09375 0.046875q-0.59375 0.046875 -0.84375 0.046875q-0.25 0 -0.453125 0q-0.203125 0 -0.90625 0q-5.703125 0 -8.296875 -0.25q-2.59375 -0.25 -2.59375 -1.75q0 -0.5 0.296875 -1.09375q0.296875 -0.59375 1.09375 -0.90625q2.5 0 4.453125 0.109375q1.953125 0.09375 4.046875 0.09375q0 -7.203125 -0.546875 -13.796875q-0.546875 -6.59375 -0.546875 -13.796875q-0.40625 -0.703125 -1.0625 -1.0q-0.640625 -0.296875 -1.296875 -0.5q-0.640625 -0.203125 -1.09375 -0.65625q-0.453125 -0.453125 -0.453125 -1.546875q0 -1.09375 0.5 -1.34375q0.5 -0.25 1.140625 -0.296875q0.65625 -0.0625 1.3125 -0.15625q0.65625 -0.109375 0.953125 -0.796875q0 -0.40625 0 -1.40625q0 -1.0 0.046875 -2.203125q0.046875 -1.203125 0.046875 -2.25q0 -1.046875 0 -1.546875q0 -2.59375 0.046875 -4.546875q0.0625 -1.953125 0.0625 -3.75q0 -1.796875 -0.15625 -3.796875q-0.15625 -2.0 -0.453125 -4.703125q-0.390625 0.09375 -1.796875 0.09375q-1.40625 0 -2.5 0q-2.0 0 -3.046875 0q-1.046875 0 -1.546875 -0.046875q-0.5 -0.046875 -0.609375 -0.25q-0.09375 -0.203125 -0.09375 -0.59375q0 -2.3125 0.640625 -3.25q0.65625 -0.953125 2.5625 -0.953125q3.296875 0 6.34375 -0.046875q3.046875 -0.0625 5.65625 -0.0625q5.1875 0 10.390625 0.40625q5.203125 0.40625 10.5 0.40625q3.796875 0 7.640625 -0.203125q3.859375 -0.203125 7.46875 -1.609375q0.796875 -0.390625 1.34375 -0.890625q0.546875 -0.5 1.25 -0.5q0.703125 0 1.296875 0.546875q0.609375 0.546875 0.609375 1.34375q0 0.203125 -0.0625 0.265625q-0.046875 0.046875 -0.046875 0.140625l0 0.203125q-1.0 1.703125 -1.609375 2.75q-0.59375 1.046875 -1.046875 1.59375q-0.4375 0.546875 -0.84375 0.75q-0.390625 0.203125 -0.890625 0.203125q-0.90625 0 -6.40625 -0.203125q-5.5 -0.203125 -16.296875 0.296875q-0.609375 6.5 -0.859375 11.859375q-0.25 5.34375 -0.25 11.84375q2.8125 0 4.703125 -0.4375q1.90625 -0.453125 3.25 -1.0q1.359375 -0.5625 2.453125 -1.0q1.09375 -0.453125 2.203125 -0.453125q1.09375 0 1.6875 0.703125q0.609375 0.6875 0.609375 2.890625q0 2.40625 -1.046875 3.65625q-1.046875 1.25 -3.75 1.25q-1.296875 0 -2.453125 -0.40625q-1.15625 -0.40625 -1.453125 -1.5l-6.203125 0.40625q0 0 -0.09375 1.296875q-0.09375 1.296875 -0.203125 3.09375q-0.09375 1.796875 -0.203125 3.65625q-0.09375 1.84375 -0.09375 2.84375q0 0.203125 0 1.453125q0 1.25 0.046875 3.046875q0.046875 1.796875 0.09375 3.859375q0.0625 2.046875 0.15625 3.84375q0.109375 1.796875 0.15625 3.046875q0.046875 1.25 0.140625 1.359375l0.609375 1.1875q0.59375 0 1.9375 0.0625q1.359375 0.046875 3.0625 0.046875q1.703125 0 3.453125 0.046875q1.75 0.046875 2.9375 0.046875q5.609375 0 8.90625 -0.59375q3.296875 -0.609375 5.046875 -1.359375q1.75 -0.75 2.453125 -1.34375q0.703125 -0.59375 1.203125 -0.59375q3.59375 0 3.59375 3.390625l-0.203125 1.40625q-0.1875 1.296875 -0.390625 1.296875l-1.296875 1.296875q0 0 -1.0 0.09375q-1.0 0.109375 -2.40625 0.203125q-1.40625 0.109375 -2.859375 0.203125q-1.4375 0.109375 -2.34375 0.109375q-1.09375 0 -1.65625 0.046875q-0.546875 0.046875 -1.453125 0.046875q-0.890625 0 -2.640625 0q-1.75 0 -5.15625 0.046875q-3.390625 0.046875 -8.890625 0.140625q-5.5 0.109375 -13.90625 0.3125zm-2.796875 -38.59375q0 3.1875 0.09375 6.9375q0.109375 3.75 0.25 7.5q0.15625 3.75 0.359375 7.203125q0.203125 3.453125 0.390625 6.109375q0.203125 2.640625 0.453125 4.25q0.25 1.59375 0.453125 1.59375l0.609375 0.59375l7.59375 0.109375q0 -2.703125 -0.15625 -5.0q-0.140625 -2.296875 -0.296875 -4.640625q-0.140625 -2.359375 -0.296875 -4.953125q-0.15625 -2.609375 -0.15625 -5.90625q0 -6.296875 0.40625 -13.046875q0.40625 -6.75 0.40625 -13.859375q0 -1.09375 -0.0625 -2.796875q-0.046875 -1.703125 -0.046875 -3.203125l0 -3.703125l-9.796875 -0.5q0 0.109375 0 0.609375q0 0.5 -0.046875 1.796875q-0.046875 1.296875 -0.109375 3.703125q-0.046875 2.390625 -0.046875 6.390625l0 10.8125zm51.60309 39.796875q0 -0.5 -0.046875 -2.0q-0.046875 -1.5 -0.046875 -2.0q0 -2.0 0.046875 -3.546875q0.046875 -1.5625 0.140625 -3.109375q0.109375 -1.546875 0.25 -3.296875q0.15625 -1.75 0.359375 -4.046875q0.5 -1.40625 2.296875 -1.40625q1.59375 0 2.796875 1.5625q1.203125 1.546875 2.296875 3.640625q1.109375 2.09375 2.203125 4.203125q1.109375 2.09375 2.609375 3.203125q0.1875 0.1875 1.53125 0.9375q1.359375 0.75 3.453125 1.609375q2.109375 0.84375 4.703125 1.546875q2.609375 0.703125 5.3125 0.703125q2.6875 0 4.890625 -0.953125q2.203125 -0.953125 3.703125 -2.546875q1.5 -1.609375 2.296875 -3.796875q0.796875 -2.203125 0.796875 -4.703125q0 -1.703125 -1.59375 -3.703125q-1.59375 -2.0 -3.90625 -3.75q-2.296875 -1.75 -4.84375 -2.890625q-2.546875 -1.15625 -4.34375 -1.15625q-0.5 0 -1.15625 0.359375q-0.65625 0.34375 -1.359375 0.796875q-0.6875 0.4375 -1.34375 0.796875q-0.640625 0.34375 -1.046875 0.34375q0.09375 -0.5 0.09375 -0.890625q0 -0.40625 0 -0.703125q0 -1.40625 -0.390625 -2.203125q-5.703125 -2.90625 -9.109375 -5.15625q-3.390625 -2.25 -5.203125 -4.59375q-1.796875 -2.359375 -2.296875 -5.046875q-0.5 -2.703125 -0.5 -6.5q0 -3.0 0.703125 -6.953125q0.703125 -3.953125 2.703125 -7.359375q2.40625 -4.09375 6.75 -5.84375q4.34375 -1.75 9.25 -1.75q2.796875 0 5.1875 0.5q2.40625 0.5 4.609375 1.40625q2.203125 0.890625 4.40625 2.203125q2.203125 1.296875 4.703125 2.890625l0.796875 0l5.296875 -6.296875q0.09375 0 0.546875 -0.046875q0.453125 -0.0625 0.65625 -0.0625q0.890625 0 1.734375 0.203125q0.859375 0.203125 1.15625 1.203125q0.5 4.203125 1.0 8.859375q0.5 4.640625 0.5 8.84375q0 0.5 -0.40625 0.859375q-0.390625 0.34375 -1.0 0.5q-0.59375 0.140625 -1.25 0.1875q-0.640625 0.046875 -1.03125 0.046875q-0.609375 0 -2.015625 -1.25q-1.390625 -1.25 -3.4375 -3.140625q-2.046875 -1.90625 -4.5 -4.046875q-2.453125 -2.15625 -5.0625 -4.046875q-2.59375 -1.90625 -5.09375 -3.15625q-2.5 -1.25 -4.703125 -1.25q-2.296875 0 -4.65625 0.40625q-2.34375 0.390625 -4.25 1.390625q-1.890625 1.0 -3.09375 2.703125q-1.1875 1.6875 -1.1875 4.296875q0 1.5 1.09375 3.25q1.09375 1.75 3.796875 3.75q2.703125 2.0 7.296875 4.203125q4.609375 2.1875 11.609375 4.59375q0.203125 -0.203125 0.796875 -1.046875q0.59375 -0.859375 1.296875 -1.796875q0.703125 -0.953125 1.40625 -1.703125q0.703125 -0.75 1.0 -0.75q0.796875 0 1.25 0.546875q0.453125 0.546875 0.453125 1.25q0 0.296875 -0.25 0.90625q-0.25 0.59375 -0.65625 1.296875q-0.40625 0.703125 -0.75 1.359375q-0.34375 0.640625 -0.453125 1.03125q3.40625 2.40625 5.84375 4.515625q2.453125 2.09375 4.046875 4.390625q1.609375 2.296875 2.359375 5.046875q0.75 2.75 0.75 6.359375q0 4.296875 -1.90625 8.09375q-1.890625 3.796875 -5.296875 6.703125q-3.390625 2.890625 -8.203125 4.59375q-4.796875 1.703125 -10.484375 1.703125q-5.609375 0 -11.0625 -1.859375q-5.4375 -1.84375 -8.84375 -6.234375q0 0 -0.203125 -0.109375q-0.203125 0 -0.609375 0.25q-0.390625 0.25 -0.390625 0.453125l-1.390625 6.796875q-0.109375 0.5 -0.515625 0.59375q-0.390625 0.109375 -0.890625 0.109375q-0.796875 0 -1.15625 -0.25q-0.34375 -0.25 -0.84375 -1.046875zm6.59375 -56.609375q0 0.40625 0 1.765625q0 1.34375 -0.046875 2.953125q-0.046875 1.59375 -0.046875 3.0q0 1.390625 0 1.78125q0 1.3125 0.296875 2.5625q0.296875 1.25 0.703125 2.34375q0.5 1.59375 1.453125 3.296875q0.953125 1.703125 3.59375 3.65625q2.65625 1.953125 7.546875 4.203125q4.90625 2.25 13.3125 4.84375q5.59375 1.796875 7.546875 4.796875q1.953125 3.0 1.953125 6.703125q0 3.703125 -1.40625 7.703125q0.90625 0 2.0 -0.953125q1.09375 -0.953125 2.046875 -2.796875q0.953125 -1.859375 1.59375 -4.546875q0.65625 -2.703125 0.65625 -6.109375q0 -5.09375 -2.796875 -8.484375q-2.796875 -3.40625 -7.109375 -5.859375q-4.296875 -2.453125 -9.390625 -4.34375q-5.09375 -1.90625 -9.65625 -4.109375q-4.546875 -2.203125 -7.953125 -5.09375q-3.390625 -2.90625 -4.296875 -7.3125zm36.609375 -2.890625q0 0.203125 0.6875 1.15625q0.703125 0.9375 1.5 1.9375q0.8125 1.0 1.5625 1.8125q0.75 0.796875 0.953125 0.796875l0.796875 0q0 0 -0.203125 -1.09375q-0.203125 -1.109375 -0.453125 -2.5625q-0.25 -1.453125 -0.546875 -2.890625q-0.296875 -1.453125 -0.5 -2.265625q-0.40625 0.3125 -1.0625 0.65625q-0.640625 0.34375 -1.25 0.75q-0.59375 0.40625 -1.046875 0.859375q-0.4375 0.4375 -0.4375 0.84375zm29.093689 56.390625q0 -0.59375 0.203125 -1.09375q0.203125 -0.5 1.09375 -0.5l7.5 0q0.203125 -2.5 0.59375 -6.140625q0.40625 -3.65625 0.8125 -8.046875q0.40625 -4.40625 0.703125 -9.453125q0.296875 -5.0625 0.296875 -10.453125l0 -24.3125l-6.09375 0.90625l-16.5 10.59375q-0.109375 0 -0.15625 0.453125q-0.046875 0.453125 -0.25 0.453125q-1.09375 0 -1.90625 -1.0q-0.796875 -1.0 -0.796875 -2.09375l6.703125 -17.609375l11.296875 3.5q1.90625 0.609375 4.0 0.765625q2.109375 0.140625 4.296875 0.140625q2.109375 0 4.046875 -0.09375q1.953125 -0.109375 3.65625 -0.109375q2.90625 0 5.25 0.046875q2.359375 0.046875 4.453125 0.046875q3.40625 0 6.203125 -0.390625q2.796875 -0.40625 5.796875 -1.796875q0.90625 -0.40625 1.5 -0.859375q0.59375 -0.453125 1.140625 -0.84375q0.5625 -0.40625 1.25 -0.59375q0.703125 -0.203125 1.90625 -0.203125q0.703125 0 1.109375 0.59375l6.6875 13.703125l0.109375 0.203125q0 0.1875 -0.3125 0.59375q-0.296875 0.40625 -0.640625 0.8125q-0.34375 0.390625 -0.65625 0.6875q-0.296875 0.296875 -0.296875 0.203125l-11.59375 -4.90625l-8.296875 -3.203125q-1.203125 0 -1.953125 0.609375q-0.75 0.59375 -1.203125 2.40625q-0.453125 1.796875 -0.609375 5.09375q-0.140625 3.296875 -0.140625 8.703125q0 3.390625 -0.109375 7.25q-0.09375 3.84375 -0.203125 7.546875q-0.09375 3.703125 -0.1875 6.90625q-0.09375 3.1875 -0.09375 5.09375q0 4.703125 0.140625 7.546875q0.15625 2.84375 0.40625 4.453125q0.25 1.59375 0.640625 2.15625q0.40625 0.546875 1.0 0.546875q1.0 0 2.546875 -0.25q1.5625 -0.25 2.859375 -0.25q1.296875 0 2.140625 0.15625q0.859375 0.140625 0.859375 1.4375q0 0.59375 -0.25 1.4375q-0.25 0.859375 -1.046875 0.96875l-6.203125 0.390625l-30.40625 0q-0.890625 0 -1.09375 -0.796875q-0.203125 -0.796875 -0.203125 -1.40625zm14.796875 -45.390625q0 0.703125 -0.046875 2.796875q-0.046875 2.09375 -0.15625 4.953125q-0.09375 2.84375 -0.140625 6.203125q-0.046875 3.34375 -0.046875 6.4375q0 3.703125 -0.15625 6.703125q-0.140625 3.0 -0.34375 5.703125q-0.203125 2.703125 -0.359375 5.3125q-0.140625 2.59375 -0.140625 5.59375q1.203125 0 2.75 0q1.546875 0 3.140625 -0.046875q1.609375 -0.0625 3.0 -0.15625q1.40625 -0.109375 2.5 -0.203125l1.203125 -58.0q-2.703125 0.90625 -5.296875 0.90625q-1.296875 0 -2.609375 -0.203125q-1.296875 -0.203125 -2.6875 -0.5q-0.109375 0.890625 -0.203125 3.0q-0.09375 2.09375 -0.203125 4.40625q-0.09375 2.296875 -0.15625 4.296875q-0.046875 2.0 -0.046875 2.796875zm-17.6875 -16.5q-0.40625 0 -0.703125 -0.046875q-0.296875 -0.0625 -0.609375 -0.0625q-0.796875 0 -1.5 1.0625q-0.6875 1.046875 -1.1875 2.34375q-0.5 1.296875 -0.8125 2.40625q-0.296875 1.09375 -0.296875 1.1875l9.90625 -5.59375q-1.40625 -0.90625 -2.40625 -1.09375q-1.0 -0.203125 -2.390625 -0.203125zm52.390625 4.390625q0 -0.390625 -0.203125 -1.234375q-0.1875 -0.859375 -0.546875 -1.65625q-0.34375 -0.796875 -0.953125 -1.453125q-0.59375 -0.65625 -1.390625 -0.65625q-1.5 0 -3.5 0.5q-2.0 0.5 -2.703125 2.0l9.296875 2.5zm3.6998901 56.109375q0 -1.40625 1.203125 -2.296875q1.203125 -0.109375 2.75 -0.203125q1.546875 -0.109375 2.890625 -0.203125q1.359375 -0.09375 2.359375 -0.25q1.0 -0.15625 1.203125 -0.453125l10.296875 -27.390625q0 -0.203125 0.046875 -0.34375q0.046875 -0.15625 0.046875 -0.359375q0 -1.5 -1.34375 -2.453125q-1.34375 -0.953125 -3.15625 -1.390625q-1.796875 -0.453125 -3.59375 -0.609375q-1.796875 -0.15625 -2.796875 -0.15625q-4.0 0 -6.953125 2.75q-2.953125 2.75 -2.953125 7.0625q0 1.296875 0.703125 2.09375q0.703125 0.796875 2.09375 0.796875q2.0 0 2.546875 -0.890625q0.5625 -0.90625 0.5625 -2.40625l0 -2.40625q0.296875 -0.890625 0.6875 -1.09375q0.40625 -0.203125 1.203125 -0.203125q0.90625 0 1.5 0.5q0.609375 0.5 0.953125 1.203125q0.359375 0.703125 0.546875 1.5625q0.203125 0.84375 0.203125 1.53125q0 1.203125 -0.65625 2.40625q-0.640625 1.203125 -1.640625 2.15625q-1.0 0.9375 -2.203125 1.59375q-1.203125 0.65625 -2.296875 0.65625q-3.90625 0 -6.0625 -1.953125q-2.140625 -1.953125 -2.140625 -5.75q0 -2.90625 1.0 -5.5q1.0 -2.609375 2.796875 -4.5q1.8125 -1.90625 4.203125 -3.0q2.40625 -1.109375 5.203125 -1.109375q3.796875 0 6.796875 0.65625q3.0 0.65625 6.40625 2.953125q0 0 0.203125 0.09375q0.09375 0 0.484375 -0.296875q0.40625 -0.296875 0.40625 -0.5l8.109375 -21.09375l0 -0.3125q0 -0.1875 -0.25 -0.53125q-0.25 -0.359375 -0.453125 -0.359375l-13.609375 0q-0.5 0 -0.59375 -0.390625q-0.09375 -0.40625 -0.09375 -0.71875q0 -0.59375 0.4375 -1.984375q0.453125 -1.40625 1.359375 -1.40625q9.890625 -0.109375 16.546875 -0.25q6.65625 -0.15625 10.953125 -0.25q4.296875 -0.109375 6.6875 -0.15625q2.40625 -0.046875 3.953125 -0.09375q1.5625 -0.046875 2.609375 -0.09375q1.046875 -0.0625 2.75 -0.0625q0.796875 0 1.1875 0.859375q0.40625 0.84375 0.40625 1.75q0 0.390625 -0.203125 1.34375q-0.1875 0.953125 -0.796875 0.953125l-9.09375 0l7.296875 21.703125q0.203125 1.09375 0.5 1.5q0.296875 0.390625 1.09375 0.390625q3.203125 0 6.25 -0.9375q3.0625 -0.953125 6.453125 -0.953125q0.796875 0 1.25 0.546875q0.453125 0.546875 0.453125 1.34375q0 1.203125 -0.90625 1.859375q-0.890625 0.640625 -2.0 0.75l-9.09375 1.1875q-0.5 0 -0.859375 0.3125q-0.34375 0.296875 -0.34375 0.796875l10.203125 29.5l5.40625 1.390625q0.796875 0.109375 0.984375 0.5625q0.203125 0.4375 0.203125 1.046875q0 1.0 -0.59375 1.703125q-0.703125 -0.109375 -1.25 -0.109375q-0.546875 0 -1.15625 0q-4.890625 0 -9.34375 0.25q-4.453125 0.25 -9.546875 0.25q-1.109375 0 -1.40625 -0.40625q-0.296875 -0.390625 -0.296875 -1.484375q0 -1.703125 1.390625 -2.25q1.40625 -0.5625 3.3125 -1.0625q0.390625 -0.09375 1.34375 -0.046875q0.953125 0.046875 2.046875 0.15625q1.109375 0.09375 2.046875 0.15625q0.953125 0.046875 1.453125 0.046875l0 -1.203125l-8.796875 -27.296875l-1.09375 0q-0.109375 0 -1.203125 0.90625q-1.09375 0.890625 -2.546875 2.140625q-1.453125 1.25 -3.0 2.65625q-1.546875 1.390625 -2.453125 2.296875q-1.09375 1.0 -1.453125 1.90625q-0.34375 0.890625 -1.953125 0.890625q-1.390625 0 -2.25 -0.890625q-0.84375 -0.90625 -1.59375 -2.0q-0.75 -1.109375 -1.609375 -2.0q-0.84375 -0.90625 -2.234375 -0.90625q-0.109375 0 -0.109375 0.046875q0 0.046875 -0.09375 0.046875l-0.109375 0l-7.890625 21.796875q-0.109375 0.109375 -0.15625 0.40625q-0.046875 0.296875 -0.046875 0.5q0 0.796875 0.546875 1.0q0.546875 0.203125 1.25 0.453125q0.703125 0.25 1.25 0.75q0.546875 0.5 0.546875 1.796875q0 0.390625 -0.09375 0.84375q-0.09375 0.453125 -0.59375 0.453125l-30.8125 0q-0.890625 0 -1.34375 -0.75q-0.453125 -0.75 -0.453125 -1.546875zm15.40625 -3.90625q0 0.703125 0.09375 1.15625q0.109375 0.453125 1.203125 0.453125l7.40625 0q0.09375 0 0.484375 -0.40625q0.40625 -0.40625 0.75 -0.953125q0.359375 -0.546875 0.703125 -1.0q0.359375 -0.453125 0.359375 -0.453125l19.390625 -53.1875l0 -1.703125l-9.6875 0l-20.609375 54.890625q-0.09375 0 -0.09375 0.5q0 0.5 0 0.703125zm24.59375 -27.5q0 0.796875 0.25 1.0q0.25 0.203125 0.953125 0.703125q0.59375 0.40625 1.4375 1.0q0.859375 0.59375 1.703125 1.203125q0.859375 0.59375 1.453125 0.953125q0.609375 0.34375 0.609375 0.34375l10.296875 -8.5q0.40625 -0.203125 0.796875 -0.453125q0.40625 -0.25 0.40625 -0.453125q0 0 -0.109375 -0.1875l0 -0.203125l-7.59375 -21.609375l-10.09375 25.609375q0 0.09375 -0.0625 0.296875q-0.046875 0.203125 -0.046875 0.296875zm75.20618 -28.5q0 13.40625 -0.453125 27.65625q-0.453125 14.25 -0.453125 27.75q0 2.0 0.34375 3.203125q0.359375 1.1875 1.0 1.84375q0.65625 0.65625 1.703125 0.859375q1.0625 0.1875 2.5625 0.1875q6.59375 0 11.640625 -2.546875q5.046875 -2.546875 8.390625 -6.75q3.359375 -4.203125 5.109375 -9.75q1.75 -5.546875 1.75 -11.546875q0 -5.5 -1.5 -11.546875q-1.5 -6.0625 -4.796875 -11.109375q-3.296875 -5.046875 -8.5 -8.34375q-5.203125 -3.296875 -12.5 -3.296875q-1.703125 0 -3.0625 0.40625q-1.34375 0.390625 -1.34375 1.984375q0 0.40625 0.046875 0.609375q0.0625 0.1875 0.0625 0.390625zm-29.0 63.5q-0.5 -0.5 -0.609375 -1.109375q-0.09375 -0.59375 -0.09375 -1.09375q0 -1.1875 0.546875 -1.390625q0.546875 -0.203125 2.859375 -0.203125l6.09375 0q0.703125 0 0.703125 -1.0q0 -3.0 -0.15625 -6.390625q-0.140625 -3.40625 -0.34375 -6.859375q-0.203125 -3.453125 -0.40625 -6.796875q-0.203125 -3.359375 -0.296875 -6.359375q-1.09375 -0.796875 -2.40625 -1.390625q-1.296875 -0.609375 -2.6875 -1.296875q1.390625 -0.8125 3.03125 -2.203125q1.65625 -1.40625 2.359375 -3.0l0 -2.0q-0.09375 -0.796875 -0.25 -2.703125q-0.140625 -1.90625 -0.296875 -4.296875q-0.15625 -2.40625 -0.40625 -5.046875q-0.25 -2.65625 -0.40625 -5.046875q-0.140625 -2.40625 -0.296875 -4.25q-0.140625 -1.859375 -0.234375 -2.765625q-0.203125 -0.6875 -1.40625 -0.6875q-1.59375 0 -2.84375 0.453125q-1.25 0.4375 -2.3125 1.1875q-1.046875 0.75 -2.0 1.65625q-0.9375 0.890625 -1.9375 1.796875q-1.3125 0 -2.265625 -0.34375q-0.9375 -0.359375 -0.9375 -1.75l0 -1.0q2.796875 -3.5 5.84375 -5.0q3.046875 -1.5 7.25 -1.8125q2.40625 0.90625 5.40625 1.203125q3.0 0.296875 5.59375 0.296875q3.5 0 5.84375 -0.296875q2.359375 -0.296875 4.15625 -0.6875q1.796875 -0.40625 3.453125 -0.703125q1.65625 -0.3125 3.75 -0.3125q5.796875 0 11.390625 2.703125q5.609375 2.703125 10.0 7.75q4.40625 5.046875 7.109375 12.25q2.703125 7.203125 2.703125 16.109375q0 8.296875 -2.5 14.75q-2.5 6.4375 -7.0625 10.796875q-4.546875 4.34375 -11.0 6.59375q-6.4375 2.25 -14.34375 2.25q-3.203125 0 -6.296875 -0.359375q-3.09375 -0.34375 -6.296875 -0.6875q-3.203125 -0.34375 -6.5625 -0.703125q-3.34375 -0.34375 -7.140625 -0.34375q-1.09375 0 -2.15625 0q-1.046875 0 -2.140625 0.09375zm12.0 -64.890625q0 1.09375 -0.0625 3.25q-0.046875 2.140625 -0.140625 4.703125q-0.09375 2.546875 -0.15625 5.046875q-0.046875 2.5 -0.046875 4.09375q0 2.796875 0.140625 7.109375q0.15625 4.296875 0.40625 9.140625q0.25 4.84375 0.546875 9.75q0.3125 4.90625 0.5625 8.859375q0.25 3.9375 0.390625 6.5q0.15625 2.546875 0.15625 2.640625l0.703125 0.703125q1.296875 0 2.390625 -0.109375q1.0 0 2.09375 -0.046875q1.109375 -0.046875 2.109375 -0.046875q1.40625 0 1.90625 0.046875q0.5 0.046875 1.296875 0.046875q0 -0.296875 0 -0.984375q0 -0.703125 0 -1.5q0 -0.8125 -0.046875 -1.5q-0.046875 -0.703125 -0.046875 -1.015625q0 -0.796875 0.046875 -3.234375q0.046875 -2.453125 0.09375 -5.75q0.046875 -3.3125 0.09375 -7.0625q0.0625 -3.75 0.109375 -7.25q0.046875 -3.5 0.09375 -6.34375q0.0625 -2.859375 0.0625 -4.25q0 -1.703125 -0.0625 -2.09375q-0.046875 -0.40625 -0.046875 -1.3125q0 -1.890625 0 -4.09375q0 -2.203125 0.046875 -4.296875q0.0625 -2.109375 0.0625 -3.796875q0 -1.703125 0 -2.515625q0 -1.6875 -0.109375 -2.84375q-0.09375 -1.15625 -0.59375 -2.25q-0.5 0.09375 -1.609375 0.09375q-3.09375 0 -5.25 0.15625q-2.140625 0.15625 -5.140625 0.15625z" fill-rule="nonzero"/><path fill="#000000" d="m36.59375 328.63376l0 21.78125l11.53125 0q0.9375 0 1.34375 0.359375q0.40625 0.359375 0.40625 0.953125q0 0.5625 -0.40625 0.9375q-0.40625 0.375 -1.34375 0.375l-20.53125 0q-0.9375 0 -1.34375 -0.375q-0.40625 -0.375 -0.40625 -0.9375q0 -0.59375 0.40625 -0.953125q0.40625 -0.359375 1.34375 -0.359375l6.34375 0l0 -21.78125l-5.6875 0q-0.9375 0 -1.34375 -0.375q-0.40625 -0.375 -0.40625 -0.96875q0 -0.5625 0.40625 -0.9375q0.40625 -0.375 1.34375 -0.375l5.6875 0l0 -3.96875q0 -3.3125 2.6875 -5.75q2.6875 -2.4375 7.125 -2.4375q3.71875 0 7.9375 0.6875q1.59375 0.25 1.921875 0.59375q0.328125 0.34375 0.328125 0.90625q0 0.5625 -0.375 0.921875q-0.375 0.359375 -1.0 0.359375q-0.25 0 -0.84375 -0.09375q-4.71875 -0.71875 -7.96875 -0.71875q-3.4375 0 -5.296875 1.6875q-1.859375 1.6875 -1.859375 3.84375l0 3.96875l12.28125 0q0.9375 0 1.34375 0.375q0.40625 0.375 0.40625 0.96875q0 0.5625 -0.40625 0.9375q-0.40625 0.375 -1.34375 0.375l-12.28125 0zm49.125 24.40625l0 -3.84375q-5.375 4.875 -11.625 4.875q-3.84375 0 -5.84375 -2.09375q-2.59375 -2.75 -2.59375 -6.40625l0 -16.9375l-3.53125 0q-0.9375 0 -1.34375 -0.375q-0.40625 -0.375 -0.40625 -0.96875q0 -0.5625 0.40625 -0.9375q0.40625 -0.375 1.34375 -0.375l6.15625 0l0 19.59375q0 2.5625 1.625 4.21875q1.625 1.65625 4.0625 1.65625q6.40625 0 11.75 -5.875l0 -16.9375l-4.84375 0q-0.9375 0 -1.34375 -0.375q-0.40625 -0.375 -0.40625 -0.96875q0 -0.5625 0.40625 -0.9375q0.40625 -0.375 1.34375 -0.375l7.46875 0l0 24.4375l2.21875 0q0.9375 0 1.34375 0.359375q0.40625 0.359375 0.40625 0.953125q0 0.5625 -0.40625 0.9375q-0.40625 0.375 -1.34375 0.375l-4.84375 0zm30.75 -39.21875l0 36.59375l10.3125 0q0.96875 0 1.375 0.359375q0.40625 0.359375 0.40625 0.953125q0 0.5625 -0.40625 0.9375q-0.40625 0.375 -1.375 0.375l-23.25 0q-0.9375 0 -1.34375 -0.375q-0.40625 -0.375 -0.40625 -0.9375q0 -0.59375 0.40625 -0.953125q0.40625 -0.359375 1.34375 -0.359375l10.3125 0l0 -33.9375l-7.5625 0q-0.9375 0 -1.359375 -0.375q-0.421875 -0.375 -0.421875 -0.96875q0 -0.5625 0.40625 -0.9375q0.40625 -0.375 1.375 -0.375l10.1875 0zm38.40625 0l0 36.59375l10.3125 0q0.96875 0 1.375 0.359375q0.40625 0.359375 0.40625 0.953125q0 0.5625 -0.40625 0.9375q-0.40625 0.375 -1.375 0.375l-23.25 0q-0.9375 0 -1.34375 -0.375q-0.40625 -0.375 -0.40625 -0.9375q0 -0.59375 0.40625 -0.953125q0.40625 -0.359375 1.34375 -0.359375l10.3125 0l0 -33.9375l-7.5625 0q-0.9375 0 -1.359375 -0.375q-0.421875 -0.375 -0.421875 -0.96875q0 -0.5625 0.40625 -0.9375q0.40625 -0.375 1.375 -0.375l10.1875 0zm84.15625 13.875q0 -0.90625 0.375 -1.3125q0.375 -0.40625 0.9375 -0.40625q0.59375 0 0.96875 0.40625q0.375 0.40625 0.375 1.375l0 4.5q0 0.9375 -0.375 1.34375q-0.375 0.40625 -0.96875 0.40625q-0.53125 0 -0.890625 -0.34375q-0.359375 -0.34375 -0.421875 -1.125q-0.1875 -1.875 -1.9375 -3.09375q-2.5625 -1.75 -6.78125 -1.75q-4.40625 0 -6.84375 1.78125q-1.84375 1.34375 -1.84375 3.0q0 1.875 2.1875 3.125q1.5 0.875 5.6875 1.34375q5.46875 0.59375 7.59375 1.34375q3.03125 1.09375 4.515625 3.03125q1.484375 1.9375 1.484375 4.1875q0 3.34375 -3.21875 5.953125q-3.21875 2.609375 -9.4375 2.609375q-6.21875 0 -10.1875 -3.15625q0 1.0625 -0.125 1.375q-0.125 0.3125 -0.453125 0.53125q-0.328125 0.21875 -0.734375 0.21875q-0.5625 0 -0.9375 -0.40625q-0.375 -0.40625 -0.375 -1.34375l0 -5.40625q0 -0.9375 0.359375 -1.34375q0.359375 -0.40625 0.953125 -0.40625q0.5625 0 0.953125 0.390625q0.390625 0.390625 0.390625 1.046875q0 1.4375 0.71875 2.40625q1.09375 1.5 3.484375 2.484375q2.390625 0.984375 5.859375 0.984375q5.125 0 7.625 -1.90625q2.5 -1.90625 2.5 -4.03125q0 -2.4375 -2.53125 -3.90625q-2.5625 -1.46875 -7.453125 -1.96875q-4.890625 -0.5 -7.015625 -1.3125q-2.125 -0.8125 -3.3125 -2.4375q-1.1875 -1.625 -1.1875 -3.5q0 -3.375 3.3125 -5.359375q3.3125 -1.984375 7.90625 -1.984375q5.4375 0 8.84375 2.65625zm24.34375 -1.71875l14.25 0q0.9375 0 1.34375 0.375q0.40625 0.375 0.40625 0.96875q0 0.5625 -0.40625 0.9375q-0.40625 0.375 -1.34375 0.375l-14.25 0l0 17.46875q0 2.28125 1.828125 3.8125q1.828125 1.53125 5.359375 1.53125q2.65625 0 5.75 -0.796875q3.09375 -0.796875 4.8125 -1.796875q0.625 -0.40625 1.03125 -0.40625q0.5 0 0.875 0.390625q0.375 0.390625 0.375 0.921875q0 0.46875 -0.40625 0.875q-1.0 1.03125 -4.859375 2.234375q-3.859375 1.203125 -7.390625 1.203125q-4.59375 0 -7.3125 -2.15625q-2.71875 -2.15625 -2.71875 -5.8125l0 -17.46875l-4.84375 0q-0.9375 0 -1.34375 -0.375q-0.40625 -0.375 -0.40625 -0.96875q0 -0.5625 0.40625 -0.9375q0.40625 -0.375 1.34375 -0.375l4.84375 0l0 -7.75q0 -0.9375 0.375 -1.34375q0.375 -0.40625 0.9375 -0.40625q0.59375 0 0.96875 0.40625q0.375 0.40625 0.375 1.34375l0 7.75zm51.34375 27.0625l0 -3.78125q-5.71875 4.8125 -12.21875 4.8125q-4.71875 0 -7.375 -2.390625q-2.65625 -2.390625 -2.65625 -5.859375q0 -3.8125 3.5 -6.65625q3.5 -2.84375 10.21875 -2.84375q1.8125 0 3.9375 0.234375q2.125 0.234375 4.59375 0.734375l0 -4.25q0 -2.15625 -2.0 -3.75q-2.0 -1.59375 -6.0 -1.59375q-3.0625 0 -8.59375 1.78125q-1.0 0.3125 -1.28125 0.3125q-0.5 0 -0.859375 -0.375q-0.359375 -0.375 -0.359375 -0.9375q0 -0.53125 0.3125 -0.84375q0.4375 -0.46875 3.53125 -1.28125q4.875 -1.3125 7.375 -1.3125q4.96875 0 7.75 2.453125q2.78125 2.453125 2.78125 5.546875l0 17.375l3.5 0q0.96875 0 1.375 0.359375q0.40625 0.359375 0.40625 0.953125q0 0.5625 -0.40625 0.9375q-0.40625 0.375 -1.375 0.375l-6.15625 0zm0 -13.0625q-1.84375 -0.53125 -3.90625 -0.78125q-2.0625 -0.25 -4.34375 -0.25q-5.71875 0 -8.9375 2.46875q-2.4375 1.84375 -2.4375 4.40625q0 2.375 1.859375 4.0q1.859375 1.625 5.421875 1.625q3.40625 0 6.328125 -1.359375q2.921875 -1.359375 6.015625 -4.328125l0 -5.78125zm41.8125 -11.34375l0 -0.875q0 -0.96875 0.375 -1.375q0.375 -0.40625 0.9375 -0.40625q0.59375 0 0.96875 0.40625q0.375 0.40625 0.375 1.375l0 5.9375q-0.03125 0.96875 -0.390625 1.375q-0.359375 0.40625 -0.953125 0.40625q-0.53125 0 -0.890625 -0.359375q-0.359375 -0.359375 -0.421875 -1.203125q-0.1875 -2.21875 -2.921875 -4.21875q-2.734375 -2.0 -7.359375 -2.0q-5.84375 0 -8.875 3.65625q-3.03125 3.65625 -3.03125 8.375q0 5.09375 3.34375 8.40625q3.34375 3.3125 8.65625 3.3125q3.0625 0 6.234375 -1.125q3.171875 -1.125 5.734375 -3.625q0.65625 -0.625 1.15625 -0.625q0.53125 0 0.890625 0.359375q0.359375 0.359375 0.359375 0.890625q0 1.34375 -3.15625 3.40625q-5.09375 3.34375 -11.34375 3.34375q-6.34375 0 -10.421875 -4.046875q-4.078125 -4.046875 -4.078125 -10.265625q0 -6.34375 4.171875 -10.53125q4.171875 -4.1875 10.515625 -4.1875q6.03125 0 10.125 3.59375zm22.125 12.71875l0 11.6875l-6.15625 0q-0.9375 0 -1.34375 -0.375q-0.40625 -0.375 -0.40625 -0.9375q0 -0.59375 0.40625 -0.953125q0.40625 -0.359375 1.34375 -0.359375l3.53125 0l0 -33.9375l-3.53125 0q-0.9375 0 -1.34375 -0.375q-0.40625 -0.375 -0.40625 -0.96875q0 -0.5625 0.40625 -0.9375q0.40625 -0.375 1.34375 -0.375l6.15625 0l0 24.1875l11.15625 -9.375l-1.34375 0q-0.9375 0 -1.34375 -0.375q-0.40625 -0.375 -0.40625 -0.9375q0 -0.59375 0.40625 -0.96875q0.40625 -0.375 1.34375 -0.375l8.40625 0q0.96875 0 1.375 0.375q0.40625 0.375 0.40625 0.96875q0 0.5625 -0.40625 0.9375q-0.40625 0.375 -1.375 0.375l-3.03125 0l-10.25 8.5625l12.96875 13.21875l3.03125 0q0.96875 0 1.375 0.359375q0.40625 0.359375 0.40625 0.953125q0 0.5625 -0.40625 0.9375q-0.40625 0.375 -1.375 0.375l-8.5 0q-0.9375 0 -1.34375 -0.375q-0.40625 -0.375 -0.40625 -0.9375q0 -0.59375 0.40625 -0.953125q0.40625 -0.359375 1.34375 -0.359375l1.84375 0l-11.28125 -11.59375l-3.0 2.53125zm91.1875 11.6875l-3.25 0.03125l-5.78125 -16.875l-5.75 16.875l-3.25 -0.03125l-5.4375 -24.40625l-1.28125 0q-0.9375 0 -1.34375 -0.375q-0.40625 -0.375 -0.40625 -0.96875q0 -0.5625 0.40625 -0.9375q0.40625 -0.375 1.34375 -0.375l7.21875 0q0.9375 0 1.34375 0.375q0.40625 0.375 0.40625 0.96875q0 0.5625 -0.40625 0.9375q-0.40625 0.375 -1.34375 0.375l-3.34375 0l4.65625 20.8125l5.59375 -16.625l3.125 0l5.75 16.625l4.46875 -20.8125l-3.3125 0q-0.9375 0 -1.359375 -0.375q-0.421875 -0.375 -0.421875 -0.96875q0 -0.5625 0.40625 -0.9375q0.40625 -0.375 1.375 -0.375l7.1875 0q0.96875 0 1.375 0.375q0.40625 0.375 0.40625 0.96875q0 0.5625 -0.40625 0.9375q-0.40625 0.375 -1.375 0.375l-1.25 0l-5.34375 24.40625zm43.5625 -12.90625l-26.75 0q0.6875 5.09375 4.265625 8.203125q3.578125 3.109375 8.859375 3.109375q2.9375 0 6.15625 -0.96875q3.21875 -0.96875 5.25 -2.5625q0.59375 -0.46875 1.03125 -0.46875q0.5 0 0.875 0.390625q0.375 0.390625 0.375 0.921875q0 0.53125 -0.5 1.03125q-1.5 1.5625 -5.328125 2.921875q-3.828125 1.359375 -7.859375 1.359375q-6.75 0 -11.265625 -4.421875q-4.515625 -4.421875 -4.515625 -10.703125q0 -5.71875 4.234375 -9.8125q4.234375 -4.09375 10.484375 -4.09375q6.4375 0 10.59375 4.203125q4.15625 4.203125 4.09375 10.890625zm-2.65625 -2.65625q-0.78125 -4.34375 -4.109375 -7.0625q-3.328125 -2.71875 -7.921875 -2.71875q-4.59375 0 -7.90625 2.6875q-3.3125 2.6875 -4.125 7.09375l24.0625 0zm16.96875 -23.65625l0 17.40625q4.75 -6.1875 11.46875 -6.1875q5.75 0 9.84375 4.171875q4.09375 4.171875 4.09375 10.234375q0 6.125 -4.140625 10.375q-4.140625 4.25 -9.796875 4.25q-6.875 0 -11.46875 -6.1875l0 5.15625l-6.15625 0q-0.9375 0 -1.34375 -0.375q-0.40625 -0.375 -0.40625 -0.9375q0 -0.59375 0.40625 -0.953125q0.40625 -0.359375 1.34375 -0.359375l3.53125 0l0 -33.9375l-3.53125 0q-0.9375 0 -1.34375 -0.375q-0.40625 -0.375 -0.40625 -0.96875q0 -0.5625 0.40625 -0.9375q0.40625 -0.375 1.34375 -0.375l6.15625 0zm22.78125 25.75q0 -4.96875 -3.40625 -8.421875q-3.40625 -3.453125 -7.96875 -3.453125q-4.5625 0 -7.96875 3.453125q-3.40625 3.453125 -3.40625 8.421875q0 4.96875 3.40625 8.421875q3.40625 3.453125 7.96875 3.453125q4.5625 0 7.96875 -3.453125q3.40625 -3.453125 3.40625 -8.421875zm76.78125 -25.75l0 36.59375l3.5 0q0.96875 0 1.375 0.359375q0.40625 0.359375 0.40625 0.953125q0 0.5625 -0.40625 0.9375q-0.40625 0.375 -1.375 0.375l-6.15625 0l0 -5.21875q-4.5625 6.25 -11.59375 6.25q-3.5625 0 -6.828125 -1.890625q-3.265625 -1.890625 -5.15625 -5.390625q-1.890625 -3.5 -1.890625 -7.21875q0 -3.75 1.890625 -7.234375q1.890625 -3.484375 5.15625 -5.390625q3.265625 -1.90625 6.859375 -1.90625q6.875 0 11.5625 6.25l0 -14.8125l-3.5 0q-0.96875 0 -1.375 -0.375q-0.40625 -0.375 -0.40625 -0.96875q0 -0.5625 0.40625 -0.9375q0.40625 -0.375 1.375 -0.375l6.15625 0zm-2.65625 25.75q0 -5.0 -3.375 -8.4375q-3.375 -3.4375 -8.03125 -3.4375q-4.6875 0 -8.0625 3.4375q-3.375 3.4375 -3.375 8.4375q0 4.96875 3.375 8.421875q3.375 3.453125 8.0625 3.453125q4.65625 0 8.03125 -3.453125q3.375 -3.453125 3.375 -8.421875zm42.40625 0.5625l-26.75 0q0.6875 5.09375 4.265625 8.203125q3.578125 3.109375 8.859375 3.109375q2.9375 0 6.15625 -0.96875q3.21875 -0.96875 5.25 -2.5625q0.59375 -0.46875 1.03125 -0.46875q0.5 0 0.875 0.390625q0.375 0.390625 0.375 0.921875q0 0.53125 -0.5 1.03125q-1.5 1.5625 -5.328125 2.921875q-3.828125 1.359375 -7.859375 1.359375q-6.75 0 -11.265625 -4.421875q-4.515625 -4.421875 -4.515625 -10.703125q0 -5.71875 4.234375 -9.8125q4.234375 -4.09375 10.484375 -4.09375q6.4375 0 10.59375 4.203125q4.15625 4.203125 4.09375 10.890625zm-2.65625 -2.65625q-0.78125 -4.34375 -4.109375 -7.0625q-3.328125 -2.71875 -7.921875 -2.71875q-4.59375 0 -7.90625 2.6875q-3.3125 2.6875 -4.125 7.09375l24.0625 0zm29.15625 15.5625l-4.4375 0l-10.78125 -24.40625l-2.6875 0q-0.9375 0 -1.34375 -0.375q-0.40625 -0.375 -0.40625 -0.96875q0 -0.5625 0.40625 -0.9375q0.40625 -0.375 1.34375 -0.375l9.84375 0q0.9375 0 1.34375 0.375q0.40625 0.375 0.40625 0.96875q0 0.5625 -0.40625 0.9375q-0.40625 0.375 -1.34375 0.375l-4.34375 0l9.625 21.78125l1.15625 0l9.4375 -21.78125l-4.375 0q-0.9375 0 -1.34375 -0.375q-0.40625 -0.375 -0.40625 -0.96875q0 -0.5625 0.40625 -0.9375q0.40625 -0.375 1.34375 -0.375l9.875 0q0.96875 0 1.359375 0.375q0.390625 0.375 0.390625 0.96875q0 0.5625 -0.390625 0.9375q-0.390625 0.375 -1.359375 0.375l-2.65625 0l-10.65625 24.40625zm50.3125 -12.90625l-26.75 0q0.6875 5.09375 4.265625 8.203125q3.578125 3.109375 8.859375 3.109375q2.9375 0 6.15625 -0.96875q3.21875 -0.96875 5.25 -2.5625q0.59375 -0.46875 1.03125 -0.46875q0.5 0 0.875 0.390625q0.375 0.390625 0.375 0.921875q0 0.53125 -0.5 1.03125q-1.5 1.5625 -5.328125 2.921875q-3.828125 1.359375 -7.859375 1.359375q-6.75 0 -11.265625 -4.421875q-4.515625 -4.421875 -4.515625 -10.703125q0 -5.71875 4.234375 -9.8125q4.234375 -4.09375 10.484375 -4.09375q6.4375 0 10.59375 4.203125q4.15625 4.203125 4.09375 10.890625zm-2.65625 -2.65625q-0.78125 -4.34375 -4.109375 -7.0625q-3.328125 -2.71875 -7.921875 -2.71875q-4.59375 0 -7.90625 2.6875q-3.3125 2.6875 -4.125 7.09375l24.0625 0zm28.1875 -23.65625l0 36.59375l10.3125 0q0.96875 0 1.375 0.359375q0.40625 0.359375 0.40625 0.953125q0 0.5625 -0.40625 0.9375q-0.40625 0.375 -1.375 0.375l-23.25 0q-0.9375 0 -1.34375 -0.375q-0.40625 -0.375 -0.40625 -0.9375q0 -0.59375 0.40625 -0.953125q0.40625 -0.359375 1.34375 -0.359375l10.3125 0l0 -33.9375l-7.5625 0q-0.9375 0 -1.359375 -0.375q-0.421875 -0.375 -0.421875 -0.96875q0 -0.5625 0.40625 -0.9375q0.40625 -0.375 1.375 -0.375l10.1875 0zm51.75 25.75q0 6.0 -4.296875 10.25q-4.296875 4.25 -10.359375 4.25q-6.125 0 -10.40625 -4.265625q-4.28125 -4.265625 -4.28125 -10.234375q0 -6.0 4.28125 -10.265625q4.28125 -4.265625 10.40625 -4.265625q6.0625 0 10.359375 4.25q4.296875 4.25 4.296875 10.28125zm-2.65625 0q0 -4.9375 -3.515625 -8.40625q-3.515625 -3.46875 -8.515625 -3.46875q-5.0 0 -8.515625 3.484375q-3.515625 3.484375 -3.515625 8.390625q0 4.875 3.515625 8.375q3.515625 3.5 8.515625 3.5q5.0 0 8.515625 -3.484375q3.515625 -3.484375 3.515625 -8.390625zm16.5 -13.59375l0 4.78125q2.34375 -2.84375 5.03125 -4.28125q2.6875 -1.4375 6.34375 -1.4375q3.875 0 7.15625 1.8125q3.28125 1.8125 5.078125 5.046875q1.796875 3.234375 1.796875 6.796875q0 5.65625 -4.046875 9.671875q-4.046875 4.015625 -9.953125 4.015625q-7.03125 0 -11.40625 -5.71875l0 15.8125l6.375 0q0.9375 0 1.34375 0.359375q0.40625 0.359375 0.40625 0.953125q0 0.5625 -0.40625 0.9375q-0.40625 0.375 -1.34375 0.375l-12.53125 0q-0.9375 0 -1.34375 -0.359375q-0.40625 -0.359375 -0.40625 -0.953125q0 -0.59375 0.40625 -0.953125q0.40625 -0.359375 1.34375 -0.359375l3.53125 0l0 -33.84375l-3.53125 0q-0.9375 0 -1.34375 -0.375q-0.40625 -0.375 -0.40625 -0.96875q0 -0.5625 0.40625 -0.9375q0.40625 -0.375 1.34375 -0.375l6.15625 0zm22.75 12.71875q0 -4.53125 -3.296875 -7.765625q-3.296875 -3.234375 -8.046875 -3.234375q-4.78125 0 -8.09375 3.25q-3.3125 3.25 -3.3125 7.75q0 4.53125 3.3125 7.78125q3.3125 3.25 8.09375 3.25q4.71875 0 8.03125 -3.234375q3.3125 -3.234375 3.3125 -7.796875zm39.75 1.4375l-26.75 0q0.6875 5.09375 4.265625 8.203125q3.578125 3.109375 8.859375 3.109375q2.9375 0 6.15625 -0.96875q3.21875 -0.96875 5.25 -2.5625q0.59375 -0.46875 1.03125 -0.46875q0.5 0 0.875 0.390625q0.375 0.390625 0.375 0.921875q0 0.53125 -0.5 1.03125q-1.5 1.5625 -5.328125 2.921875q-3.828125 1.359375 -7.859375 1.359375q-6.75 0 -11.265625 -4.421875q-4.515625 -4.421875 -4.515625 -10.703125q0 -5.71875 4.234375 -9.8125q4.234375 -4.09375 10.484375 -4.09375q6.4375 0 10.59375 4.203125q4.15625 4.203125 4.09375 10.890625zm-2.65625 -2.65625q-0.78125 -4.34375 -4.109375 -7.0625q-3.328125 -2.71875 -7.921875 -2.71875q-4.59375 0 -7.90625 2.6875q-3.3125 2.6875 -4.125 7.09375l24.0625 0zm23.71875 -11.5l0 6.625q5.125 -4.625 7.671875 -5.953125q2.546875 -1.328125 4.703125 -1.328125q2.34375 0 4.359375 1.578125q2.015625 1.578125 2.015625 2.390625q0 0.59375 -0.390625 0.984375q-0.390625 0.390625 -0.984375 0.390625q-0.3125 0 -0.53125 -0.109375q-0.21875 -0.109375 -0.8125 -0.703125q-1.09375 -1.09375 -1.90625 -1.5q-0.8125 -0.40625 -1.59375 -0.40625q-1.71875 0 -4.140625 1.375q-2.421875 1.375 -8.390625 6.71875l0 14.375l11.625 0q0.96875 0 1.375 0.359375q0.40625 0.359375 0.40625 0.953125q0 0.5625 -0.40625 0.9375q-0.40625 0.375 -1.375 0.375l-20.59375 0q-0.9375 0 -1.34375 -0.359375q-0.40625 -0.359375 -0.40625 -0.921875q0 -0.53125 0.390625 -0.890625q0.390625 -0.359375 1.359375 -0.359375l6.34375 0l0 -21.875l-4.84375 0q-0.9375 0 -1.34375 -0.375q-0.40625 -0.375 -0.40625 -0.96875q0 -0.5625 0.390625 -0.9375q0.390625 -0.375 1.359375 -0.375l7.46875 0z" fill-rule="nonzero"/></g></svg>